<?xml version="1.0" encoding="UTF-8"?>
<svg id="Layer_1" data-name="Layer 1" xmlns="http://www.w3.org/2000/svg" viewBox="0 0 1000 213">
  <defs>
    <style>
      .cls-1 {
        fill: #fff;
      }
    </style>
  </defs>
  <path class="cls-1" d="M105.4,121.9l14.43-47.09-50.92.25,2.98-28.19h71.27c5.64-17.97,10.82-34.4,14.62-46.46H21.9L0,209.04h54.75l9.21-87.13h41.44Z"/>
  <path class="cls-1" d="M359.01,209.04l9.47-89.37c.98-8.68-.05-15.09-3.11-19.24-3.06-4.14-7.74-6.21-14.06-6.21-6.71,0-12.04,2.12-15.98,6.36-3.95,4.24-6.41,10.51-7.4,18.79l-9.47,89.67h-52.08l16.57-156.25h49.12l-1.48,13.61c4.73-5.52,10.7-9.77,17.9-12.72,7.2-2.96,15.24-4.44,24.12-4.44,11.25,0,20.76,2.22,28.56,6.66,7.79,4.44,13.46,11.35,17.01,20.72,3.55,9.37,4.54,21.56,2.96,36.55l-10.06,95.88h-52.08Z"/>
  <path class="cls-1" d="M492.78,212.59c-14.2,0-26.34-3.4-36.4-10.21-10.06-6.81-17.41-16.37-22.05-28.7-4.64-12.33-6.07-26.58-4.29-42.76,1.78-16.57,6.21-30.92,13.32-43.06,7.1-12.13,16.42-21.6,27.97-28.41,11.54-6.81,24.31-10.21,38.32-10.21,17.56,0,31.71,4.44,42.47,13.32,10.75,8.88,17.61,21.31,20.57,37.29l-48.53,13.02c-.99-7.69-2.91-13.27-5.77-16.72-2.86-3.45-6.56-5.18-11.1-5.18s-8.29,1.63-11.84,4.88c-3.55,3.26-6.56,7.89-9.03,13.91-2.47,6.02-4.1,13.07-4.88,21.16-.79,8.29-.59,15.39.59,21.31,1.18,5.92,3.15,10.51,5.92,13.76,2.76,3.25,6.41,4.88,10.95,4.88s8.24-1.72,11.69-5.18c3.45-3.45,6.56-8.92,9.32-16.42l46.16,13.02c-6.71,16.77-16.03,29.35-27.97,37.73-11.94,8.39-27.08,12.58-45.42,12.58Z"/>
  <path class="cls-1" d="M725.21,209.04l16.57-156.25h49.12l-1.48,14.2c3.35-5.33,8.14-9.62,14.35-12.87,6.21-3.25,13.36-4.88,21.45-4.88,1.58,0,3.11.05,4.59.15,1.48.1,2.71.35,3.7.74l-5.33,50.01c-2.17-.59-4.34-1.04-6.51-1.33-2.17-.3-4.54-.44-7.1-.44-5.52,0-10.31,1.14-14.35,3.4-4.05,2.27-7.3,6.02-9.77,11.25-2.47,5.23-4.19,12.09-5.18,20.57l-7.99,75.46h-52.08Z"/>
  <path class="cls-1" d="M982.33,168.73L1000,.41h-52.08l-6.81,65.99c-2.37-3.55-5.38-6.61-9.02-9.17-3.65-2.56-7.89-4.54-12.73-5.92-4.84-1.38-10.11-2.07-15.83-2.07-12.83,0-24.41,3.4-34.77,10.21-10.36,6.81-18.89,16.38-25.6,28.7-6.71,12.33-10.95,26.68-12.73,43.06-1.78,16.38-.55,30.63,3.7,42.76,4.24,12.13,10.9,21.6,19.98,28.41,9.07,6.81,19.83,10.21,32.26,10.21,6.31,0,12.23-.74,17.75-2.22,5.52-1.48,10.6-3.8,15.24-6.96,4.63-3.15,8.33-6.8,11.1-10.95h0s0,.03,0,.03c1.07,6.45,3.7,12.56,6.2,16.51h41.35l.09.03v-.03s14.09,0,14.09,0c-4.96-7.81-11.53-23.25-9.86-40.28ZM937.26,130.91c-.79,8.09-2.62,15.05-5.48,20.86-2.86,5.82-6.36,10.31-10.5,13.46-4.14,3.16-9.08,4.73-14.8,4.73s-10.41-1.58-14.06-4.73c-3.65-3.15-6.21-7.64-7.69-13.46-1.48-5.82-1.83-12.77-1.04-20.86.79-8.09,2.52-15.04,5.18-20.86,2.66-5.82,6.16-10.31,10.5-13.46,4.34-3.15,9.27-4.73,14.8-4.73s10.4,1.63,14.06,4.88c3.65,3.25,6.26,7.69,7.84,13.32,1.58,5.62,1.97,12.58,1.18,20.86Z"/>
  <path class="cls-1" d="M719.18,209.01c-4.95-7.8-11.52-23.23-9.86-40.24l6.15-56.79c1.97-20.12-1.78-35.61-11.25-46.46-9.47-10.85-25.35-16.28-47.64-16.28-18.74,0-34.77,4.1-48.09,12.28-13.32,8.19-22.34,20.08-27.08,35.66l47.94,9.47c1.77-6.31,4.39-11.05,7.84-14.2,3.45-3.15,7.64-4.73,12.58-4.73,5.33,0,9.17,1.48,11.54,4.44,2.37,2.96,3.15,7.6,2.37,13.91l-.21,2.24-39.74,8.71c-15.98,3.36-28.51,9.37-37.58,18.05-9.08,8.68-14.31,19.53-15.68,32.55-1.38,13.61,2.12,24.52,10.5,32.7,8.38,8.19,20.37,12.28,35.95,12.28,9.07,0,17.11-1.63,24.12-4.88,7-3.25,13.06-8.03,18.2-14.35h0s0,0,0,0c1.07,6.48,4.23,11.73,6.74,15.68l53.2-.03ZM659.24,152.52c-.59,4.54-1.78,8.48-3.55,11.84-1.78,3.36-4.34,6.02-7.7,7.99-3.36,1.97-7.2,2.96-11.54,2.96-3.95,0-7.2-1.23-9.77-3.7-2.57-2.46-3.65-5.77-3.25-9.91.39-4.34,1.87-7.74,4.44-10.21,2.56-2.46,6.31-4.49,11.24-6.07l21.33-5.5-1.2,12.61Z"/>
  <path class="cls-1" d="M261.49,209.01c-4.95-7.8-11.52-23.23-9.86-40.24l6.15-56.79c1.97-20.12-1.78-35.61-11.25-46.46-9.47-10.85-25.35-16.28-47.64-16.28-18.74,0-34.77,4.1-48.09,12.28-13.32,8.19-22.34,20.08-27.08,35.66l47.94,9.47c1.77-6.31,4.39-11.05,7.84-14.2,3.45-3.15,7.64-4.73,12.58-4.73,5.33,0,9.17,1.48,11.54,4.44,2.37,2.96,3.15,7.6,2.37,13.91l-.21,2.24-39.74,8.71c-15.98,3.36-28.51,9.37-37.58,18.05-9.08,8.68-14.31,19.53-15.68,32.55-1.38,13.61,2.12,24.52,10.5,32.7,8.38,8.19,20.37,12.28,35.95,12.28,9.07,0,17.11-1.63,24.12-4.88,7-3.25,13.06-8.03,18.2-14.35h0s0,0,0,0c1.07,6.48,4.23,11.73,6.74,15.68l53.2-.03ZM201.55,152.52c-.59,4.54-1.78,8.48-3.55,11.84-1.78,3.36-4.34,6.02-7.7,7.99-3.36,1.97-7.2,2.96-11.54,2.96-3.95,0-7.2-1.23-9.77-3.7-2.57-2.46-3.65-5.77-3.25-9.91.39-4.34,1.87-7.74,4.44-10.21,2.56-2.46,6.31-4.49,11.24-6.07l21.33-5.5-1.2,12.61Z"/>
</svg>