<?xml version="1.0" encoding="UTF-8"?>
<svg id="Layer_1" data-name="Layer 1" xmlns="http://www.w3.org/2000/svg" viewBox="0 0 2254.24 965.66">
  <defs>
    <style>
      .cls-1 {
        fill: #fff;
      }

      .cls-2 {
        fill: #2a2a2a;
      }

      .cls-3 {
        fill: #2a2a2a;
      }

      .cls-4 {
        fill: #6fe866;
      }
    </style>
  </defs>
  <rect class="cls-2" y="0" width="2254.24" height="1034.35"/>
  <g>
    <g>
      <path class="cls-4" d="M2150.27,568.86c-1.53,1.7-2.12,4.04-2.34,6.32-.18,1.83-.16,3.71.35,5.48s1.53,3.43,3.06,4.46,3.58,1.34,5.26.58c.85-.39,1.56-1.01,2.19-1.69.81-.87,1.53-1.83,2.03-2.91.59-1.26.88-2.66.99-4.05.22-2.87-.36-5.84-1.84-8.31-.73-1.21-1.77-2.37-3.16-2.64-2.52-.5-4.89.95-6.53,2.76Z"/>
      <path class="cls-4" d="M2126.71,585.81c-1.96,1.96-2.81,4.77-3.21,7.5-.33,2.21-.42,4.48.09,6.65s1.65,4.25,3.43,5.59,4.25,1.84,6.32,1.02c1.05-.42,1.95-1.13,2.76-1.91,1.04-1,1.96-2.12,2.64-3.39.79-1.49,1.23-3.16,1.44-4.84.43-3.47-.09-7.09-1.73-10.17-.81-1.51-2-2.97-3.67-3.39-3.02-.75-5.98.85-8.07,2.94Z"/>
      <path class="cls-4" d="M2076.99,544.88c-1.44,1.49-2.04,3.6-2.31,5.65-.22,1.65-.26,3.35.15,4.97s1.28,3.16,2.64,4.13,3.2,1.33,4.74.68c.78-.32,1.44-.87,2.04-1.47.76-.76,1.44-1.61,1.93-2.57.57-1.13.88-2.38,1.01-3.63.28-2.6-.15-5.3-1.42-7.58-.62-1.12-1.53-2.2-2.78-2.49-2.26-.53-4.46.71-5.99,2.3Z"/>
      <path class="cls-4" d="M2068.14,573.2c-1.79,1.89-2.51,4.55-2.82,7.14-.25,2.08-.27,4.22.26,6.25s1.66,3.95,3.38,5.16c1.71,1.21,4.04,1.62,5.97.79.97-.42,1.8-1.12,2.54-1.87.95-.97,1.79-2.05,2.39-3.26.71-1.43,1.07-3,1.22-4.59.32-3.27-.27-6.66-1.9-9.51-.8-1.4-1.96-2.74-3.54-3.09-2.86-.63-5.6.96-7.5,2.98Z"/>
      <path class="cls-4" d="M2050.19,601.61c-2.06,2.36-2.8,5.58-3.06,8.7-.21,2.51-.13,5.08.6,7.49s2.18,4.66,4.29,6.04,4.93,1.76,7.2.67c1.15-.55,2.11-1.42,2.96-2.37,1.09-1.2,2.05-2.54,2.71-4.02.78-1.74,1.14-3.65,1.25-5.56.23-3.94-.63-7.98-2.71-11.33-1.02-1.64-2.48-3.2-4.39-3.54-3.46-.62-6.67,1.41-8.87,3.92Z"/>
      <path class="cls-4" d="M2017.27,557.7c-1.31,1.37-1.85,3.3-2.08,5.18-.19,1.51-.22,3.07.16,4.54s1.19,2.88,2.43,3.77,2.93,1.2,4.34.6c.71-.3,1.31-.8,1.86-1.35.69-.7,1.31-1.48,1.75-2.36.52-1.03.79-2.18.91-3.33.24-2.37-.16-4.84-1.33-6.92-.57-1.02-1.41-2-2.56-2.26-2.07-.47-4.07.67-5.47,2.13Z"/>
      <path class="cls-4" d="M1991.75,561.91c-1.67,1.88-2.29,4.47-2.51,6.97-.18,2.02-.14,4.08.44,6.02s1.72,3.76,3.41,4.88,3.95,1.44,5.78.58c.93-.43,1.7-1.13,2.4-1.88.88-.96,1.66-2.03,2.21-3.22.64-1.4.94-2.93,1.04-4.46.21-3.16-.46-6.42-2.11-9.12-.81-1.33-1.97-2.59-3.5-2.87-2.77-.52-5.37,1.09-7.15,3.1Z"/>
      <path class="cls-4" d="M1968.58,557.99c-2.17,2.36-3.03,5.64-3.38,8.82-.28,2.57-.28,5.2.41,7.69s2.1,4.84,4.23,6.3,5,1.94,7.36.89c1.19-.53,2.2-1.4,3.1-2.34,1.15-1.2,2.17-2.55,2.89-4.05.85-1.76,1.27-3.71,1.44-5.66.34-4.03-.42-8.19-2.46-11.68-1-1.71-2.45-3.35-4.39-3.75-3.52-.73-6.88,1.26-9.19,3.77Z"/>
      <path class="cls-4" d="M1948.76,578.84c-1.4,1.37-2.02,3.35-2.33,5.29-.25,1.56-.33,3.17.01,4.71s1.14,3.02,2.39,3.98,2.99,1.33,4.47.77c.74-.29,1.38-.79,1.96-1.34.74-.7,1.4-1.49,1.89-2.38.57-1.05.89-2.23,1.05-3.41.33-2.45-.01-5.01-1.15-7.21-.56-1.08-1.4-2.12-2.57-2.42-2.13-.55-4.24.56-5.73,2.02Z"/>
      <path class="cls-4" d="M1925.47,590.56c-1.89,2-2.65,4.81-2.98,7.53-.27,2.2-.29,4.45.27,6.6s1.75,4.17,3.56,5.44,4.27,1.71,6.3.83c1.03-.44,1.9-1.18,2.68-1.98,1-1.02,1.88-2.16,2.52-3.44.75-1.5,1.13-3.17,1.29-4.84.33-3.45-.28-7.03-2-10.04-.84-1.48-2.07-2.89-3.73-3.26-3.01-.66-5.91,1.01-7.92,3.14Z"/>
      <path class="cls-4" d="M1904.2,616.9c-1.54,1.58-2.18,3.82-2.48,6-.24,1.76-.29,3.57.14,5.29s1.35,3.36,2.79,4.41,3.4,1.42,5.04.75c.83-.34,1.54-.92,2.17-1.55.81-.8,1.54-1.71,2.06-2.73.62-1.2.94-2.53,1.1-3.86.31-2.76-.14-5.64-1.47-8.07-.66-1.2-1.62-2.35-2.95-2.66-2.41-.57-4.75.73-6.39,2.42Z"/>
      <path class="cls-4" d="M1873.5,579.22c-1.93,2.3-2.59,5.42-2.77,8.42-.15,2.42-.03,4.89.72,7.19s2.18,4.44,4.24,5.72,4.77,1.6,6.94.51c1.09-.55,2-1.41,2.8-2.33,1.03-1.18,1.92-2.48,2.53-3.92.72-1.69,1.03-3.53,1.1-5.37.14-3.79-.76-7.66-2.83-10.84-1.01-1.56-2.45-3.03-4.28-3.32-3.34-.53-6.39,1.48-8.45,3.94Z"/>
      <path class="cls-4" d="M1853.75,637.33c-2.52,2.63-3.56,6.33-4.02,9.94-.38,2.91-.43,5.89.29,8.74s2.28,5.54,4.66,7.25,5.63,2.31,8.33,1.17c1.36-.57,2.53-1.54,3.57-2.59,1.33-1.34,2.52-2.84,3.37-4.53,1-1.98,1.53-4.18,1.76-6.39.48-4.56-.3-9.3-2.54-13.31-1.1-1.97-2.71-3.85-4.9-4.35-3.98-.91-7.83,1.27-10.52,4.07Z"/>
      <path class="cls-4" d="M1825.01,584.68c-2.32,2.67-3.16,6.32-3.44,9.85-.23,2.84-.14,5.75.7,8.47.84,2.73,2.47,5.27,4.87,6.82s5.58,1.98,8.15.75c1.3-.62,2.38-1.62,3.35-2.68,1.23-1.36,2.31-2.88,3.06-4.56.88-1.97,1.29-4.14,1.41-6.29.25-4.46-.73-9.03-3.1-12.81-1.16-1.86-2.81-3.61-4.97-4-3.91-.7-7.55,1.61-10.03,4.46Z"/>
      <path class="cls-4" d="M1802.21,618.84c-2.49,2.79-3.41,6.64-3.75,10.36-.27,3-.22,6.07.63,8.96s2.55,5.6,5.06,7.26,5.87,2.16,8.6.89c1.38-.64,2.54-1.68,3.57-2.79,1.32-1.43,2.48-3.02,3.29-4.78.95-2.08,1.41-4.35,1.56-6.63.32-4.71-.66-9.54-3.12-13.57-1.2-1.98-2.93-3.85-5.2-4.28-4.13-.78-7.99,1.61-10.64,4.59Z"/>
      <path class="cls-4" d="M1777.67,594.88c-2.51,2.54-3.58,6.17-4.09,9.71-.41,2.85-.51,5.78.16,8.58.67,2.8,2.16,5.47,4.47,7.18s5.5,2.35,8.17,1.27c1.35-.54,2.5-1.48,3.54-2.49,1.33-1.3,2.51-2.76,3.38-4.4,1.01-1.93,1.56-4.09,1.82-6.25.53-4.48-.16-9.14-2.31-13.11-1.05-1.95-2.61-3.82-4.76-4.34-3.9-.95-7.71,1.14-10.39,3.85Z"/>
      <path class="cls-4" d="M1755.94,624.03c-1.63,1.7-2.29,4.11-2.59,6.44-.24,1.88-.27,3.82.2,5.66s1.48,3.58,3.03,4.69,3.65,1.49,5.4.75c.88-.37,1.63-1,2.31-1.68.86-.87,1.63-1.84,2.18-2.94.65-1.29.98-2.71,1.13-4.14.3-2.96-.21-6.03-1.66-8.62-.71-1.27-1.76-2.49-3.18-2.81-2.58-.58-5.07.84-6.8,2.66Z"/>
      <path class="cls-4" d="M1728.79,587.85c-1.68,1.98-2.26,4.68-2.43,7.27-.14,2.09-.04,4.22.6,6.22s1.87,3.85,3.64,4.96,4.12,1.4,6,.47c.95-.47,1.73-1.21,2.43-2,.89-1.01,1.67-2.14,2.2-3.38.63-1.46.9-3.05.97-4.64.14-3.28-.63-6.62-2.4-9.38-.87-1.35-2.1-2.63-3.69-2.89-2.88-.47-5.53,1.26-7.32,3.37Z"/>
      <path class="cls-4" d="M1705.03,646.82c-2.1,2.48-2.83,5.85-3.05,9.1-.18,2.62-.06,5.29.74,7.79s2.34,4.82,4.56,6.22,5.16,1.75,7.51.59c1.19-.59,2.17-1.51,3.05-2.51,1.12-1.27,2.09-2.68,2.76-4.23.79-1.83,1.13-3.82,1.22-5.81.18-4.1-.78-8.29-3-11.75-1.09-1.7-2.63-3.29-4.62-3.62-3.61-.59-6.92,1.57-9.17,4.22Z"/>
      <path class="cls-4" d="M1680.98,627.46c-1.78,2.02-2.44,4.8-2.67,7.48-.19,2.16-.14,4.38.49,6.46s1.86,4.03,3.67,5.22,4.24,1.53,6.2.61c.99-.47,1.82-1.22,2.56-2.03.95-1.03,1.78-2.18,2.36-3.46.68-1.5,1-3.14,1.1-4.79.21-3.39-.51-6.88-2.29-9.77-.87-1.42-2.12-2.77-3.76-3.07-2.98-.55-5.76,1.19-7.66,3.34Z"/>
      <path class="cls-4" d="M1656.97,649.08c-1.85,1.91-2.63,4.61-2.98,7.24-.29,2.12-.34,4.3.17,6.38s1.64,4.05,3.37,5.31,4.1,1.71,6.08.89c1-.41,1.85-1.11,2.62-1.87.98-.97,1.85-2.06,2.48-3.29.74-1.44,1.13-3.05,1.31-4.66.37-3.33-.18-6.79-1.79-9.73-.79-1.44-1.96-2.82-3.56-3.2-2.9-.68-5.72.89-7.7,2.93Z"/>
      <path class="cls-4" d="M1631.74,628.5c-1.78,1.93-2.47,4.62-2.76,7.23-.23,2.1-.22,4.26.34,6.3s1.73,3.96,3.47,5.16c1.74,1.2,4.1,1.58,6.03.72.98-.43,1.8-1.15,2.54-1.92.94-.99,1.78-2.09,2.37-3.32.69-1.45,1.04-3.04,1.17-4.64.28-3.3-.35-6.71-2.03-9.57-.82-1.4-2.01-2.74-3.6-3.07-2.89-.6-5.63,1.04-7.53,3.1Z"/>
      <path class="cls-4" d="M1608.37,599.08c-1.3,1.28-1.87,3.13-2.16,4.94-.23,1.46-.3,2.96.03,4.39s1.07,2.81,2.24,3.7,2.8,1.24,4.17.7c.69-.27,1.29-.74,1.83-1.25.69-.65,1.3-1.39,1.75-2.23.53-.98.82-2.08.97-3.19.3-2.29-.03-4.68-1.1-6.72-.53-1-1.31-1.97-2.4-2.25-1.99-.51-3.95.53-5.34,1.91Z"/>
      <path class="cls-4" d="M1581.17,604.44c-2.28,2.39-3.23,5.76-3.64,9.04-.34,2.64-.38,5.36.28,7.94s2.08,5.03,4.24,6.58,5.12,2.09,7.58,1.06c1.24-.52,2.29-1.4,3.24-2.36,1.21-1.22,2.29-2.59,3.06-4.12.91-1.8,1.38-3.8,1.59-5.81.43-4.15-.28-8.46-2.32-12.09-1-1.79-2.47-3.5-4.46-3.95-3.62-.82-7.12,1.17-9.55,3.72Z"/>
      <path class="cls-4" d="M1556.51,603.65c-2.23,2.45-3.09,5.86-3.43,9.16-.27,2.66-.25,5.39.48,7.96s2.21,4.99,4.42,6.5,5.19,1.97,7.63.87c1.23-.56,2.27-1.47,3.19-2.45,1.18-1.25,2.23-2.65,2.97-4.21.87-1.83,1.29-3.85,1.45-5.87.33-4.17-.5-8.48-2.64-12.08-1.05-1.77-2.56-3.45-4.58-3.85-3.65-.73-7.11,1.35-9.49,3.97Z"/>
      <path class="cls-4" d="M1533.72,583.53c-1.93,1.89-2.78,4.62-3.21,7.28-.34,2.15-.45,4.36.02,6.48s1.56,4.16,3.29,5.48,4.12,1.84,6.15,1.06c1.02-.39,1.91-1.08,2.71-1.84,1.02-.96,1.93-2.05,2.6-3.28.79-1.45,1.23-3.07,1.45-4.7.46-3.37,0-6.91-1.58-9.93-.77-1.48-1.92-2.92-3.54-3.34-2.93-.77-5.84.77-7.89,2.78Z"/>
      <path class="cls-4" d="M1505.84,629.66c-2.49,2.74-3.44,6.54-3.81,10.22-.3,2.96-.27,6,.54,8.87s2.47,5.56,4.93,7.24,5.79,2.19,8.5.96c1.37-.62,2.52-1.64,3.56-2.73,1.32-1.4,2.48-2.96,3.3-4.7.96-2.04,1.44-4.29,1.61-6.55.36-4.65-.56-9.45-2.95-13.46-1.17-1.97-2.86-3.84-5.1-4.29-4.07-.81-7.92,1.51-10.57,4.43Z"/>
      <path class="cls-4" d="M1481.6,607.68c-2.6,2.69-3.68,6.5-4.16,10.21-.39,2.99-.46,6.06.28,8.98.73,2.92,2.33,5.7,4.77,7.46s5.78,2.39,8.57,1.23c1.4-.59,2.6-1.58,3.68-2.65,1.38-1.37,2.6-2.92,3.48-4.65,1.04-2.04,1.58-4.3,1.83-6.57.5-4.69-.28-9.57-2.58-13.69-1.13-2.02-2.77-3.97-5.03-4.49-4.09-.95-8.06,1.29-10.82,4.16Z"/>
      <path class="cls-4" d="M1456.37,651.8c-2.36,2.48-3.32,5.97-3.74,9.36-.34,2.73-.38,5.54.31,8.21s2.17,5.2,4.41,6.79,5.3,2.15,7.84,1.07c1.28-.55,2.37-1.46,3.35-2.45,1.25-1.26,2.36-2.68,3.15-4.27.93-1.87,1.42-3.94,1.62-6.02.43-4.29-.32-8.75-2.45-12.5-1.04-1.84-2.56-3.61-4.63-4.07-3.75-.84-7.36,1.23-9.87,3.88Z"/>
      <path class="cls-4" d="M1433.73,592.25c-2.41,2.49-3.42,6.02-3.87,9.46-.37,2.77-.43,5.62.24,8.33s2.15,5.29,4.41,6.93,5.36,2.22,7.94,1.15c1.3-.54,2.41-1.46,3.41-2.45,1.28-1.27,2.41-2.7,3.23-4.3.96-1.89,1.47-3.98,1.7-6.09.47-4.35-.25-8.87-2.37-12.7-1.04-1.88-2.57-3.68-4.66-4.17-3.79-.88-7.47,1.18-10.04,3.84Z"/>
      <path class="cls-4" d="M1409.31,616.01c-1.9,2.02-2.67,4.86-3,7.62-.27,2.22-.29,4.51.29,6.67s1.78,4.21,3.61,5.5,4.32,1.72,6.37.84c1.04-.45,1.92-1.19,2.71-2,1.01-1.03,1.9-2.19,2.54-3.48.75-1.52,1.14-3.21,1.3-4.9.33-3.49-.3-7.11-2.04-10.15-.85-1.49-2.1-2.92-3.78-3.29-3.05-.67-5.97,1.03-8,3.19Z"/>
      <path class="cls-4" d="M1385.2,628.73c-1.63,1.64-2.33,3.98-2.66,6.26-.27,1.84-.34,3.74.09,5.55s1.38,3.54,2.88,4.65,3.55,1.53,5.27.84c.87-.35,1.62-.95,2.29-1.6.86-.83,1.63-1.78,2.19-2.84.66-1.25,1.01-2.64,1.19-4.04.35-2.89-.09-5.91-1.46-8.47-.68-1.26-1.68-2.47-3.06-2.82-2.52-.62-4.98.72-6.72,2.47Z"/>
      <path class="cls-4" d="M1360.03,609.04c-1.86,1.99-2.61,4.79-2.92,7.5-.25,2.18-.27,4.43.3,6.55s1.76,4.13,3.56,5.39,4.25,1.68,6.26.8c1.02-.44,1.88-1.18,2.65-1.98.99-1.02,1.86-2.16,2.49-3.43.73-1.5,1.11-3.15,1.26-4.81.32-3.43-.31-6.98-2.03-9.96-.84-1.46-2.07-2.86-3.72-3.22-3-.64-5.86,1.03-7.85,3.16Z"/>
      <path class="cls-4" d="M1338.16,590.16c-1.27,1.51-1.71,3.56-1.84,5.53-.1,1.59-.03,3.21.46,4.73s1.43,2.92,2.78,3.77,3.13,1.06,4.56.35c.72-.36,1.32-.92,1.85-1.53.68-.77,1.27-1.63,1.67-2.57.47-1.11.68-2.32.73-3.53.1-2.49-.49-5.04-1.84-7.13-.66-1.03-1.6-1.99-2.81-2.19-2.19-.35-4.2.96-5.56,2.58Z"/>
      <path class="cls-4" d="M1310.82,575.25c-2.62,2.75-3.69,6.62-4.17,10.38-.38,3.03-.43,6.15.33,9.11s2.39,5.77,4.88,7.54,5.88,2.39,8.69,1.2c1.42-.6,2.63-1.61,3.72-2.71,1.39-1.4,2.62-2.97,3.5-4.73,1.04-2.07,1.58-4.37,1.81-6.67.49-4.76-.34-9.7-2.69-13.87-1.15-2.05-2.84-4.01-5.13-4.52-4.16-.94-8.16,1.35-10.95,4.28Z"/>
      <path class="cls-4" d="M1287.37,578.4c-2.09,2.2-2.95,5.3-3.33,8.31-.3,2.43-.34,4.92.27,7.29s1.92,4.62,3.91,6.04,4.71,1.91,6.96.96c1.14-.48,2.1-1.29,2.97-2.17,1.11-1.12,2.09-2.38,2.8-3.79.83-1.66,1.26-3.5,1.45-5.34.39-3.81-.28-7.77-2.16-11.1-.92-1.64-2.27-3.21-4.11-3.62-3.33-.75-6.53,1.09-8.77,3.43Z"/>
      <path class="cls-4" d="M1261.3,607.91c-1.68,1.96-2.26,4.63-2.45,7.21-.15,2.07-.06,4.19.56,6.18s1.84,3.83,3.6,4.94,4.08,1.41,5.95.49c.94-.46,1.73-1.19,2.42-1.98.89-1,1.67-2.12,2.2-3.35.63-1.45.91-3.03.98-4.6.15-3.25-.59-6.58-2.34-9.33-.86-1.35-2.08-2.62-3.65-2.88-2.86-.48-5.5,1.22-7.28,3.32Z"/>
      <path class="cls-4" d="M1235.45,588.46c-2.53,2.75-3.51,6.58-3.91,10.29-.32,2.99-.31,6.06.5,8.96.8,2.9,2.46,5.63,4.94,7.33s5.83,2.24,8.58,1.02c1.39-.62,2.56-1.64,3.61-2.74,1.34-1.4,2.52-2.97,3.36-4.72.98-2.06,1.47-4.33,1.66-6.6.39-4.69-.52-9.54-2.9-13.6-1.17-1.99-2.87-3.89-5.13-4.36-4.11-.84-8.01,1.48-10.7,4.42Z"/>
      <path class="cls-4" d="M1210.75,639.66c-1.52,1.56-2.17,3.78-2.47,5.94-.24,1.74-.29,3.54.13,5.24s1.34,3.33,2.76,4.37,3.37,1.41,4.99.75c.82-.34,1.52-.91,2.16-1.53.81-.8,1.53-1.69,2.05-2.7.61-1.18.94-2.5,1.09-3.83.31-2.74-.13-5.59-1.45-8-.65-1.19-1.61-2.33-2.92-2.64-2.39-.57-4.71.72-6.33,2.39Z"/>
      <path class="cls-4" d="M1183.78,617.85c-2.46,2.82-3.35,6.68-3.66,10.41-.25,3.01-.16,6.08.72,8.96.88,2.89,2.61,5.58,5.14,7.22,2.53,1.64,5.9,2.1,8.62.81,1.37-.65,2.52-1.7,3.55-2.83,1.31-1.44,2.45-3.04,3.25-4.82.94-2.09,1.37-4.37,1.5-6.65.27-4.71-.75-9.55-3.25-13.56-1.22-1.97-2.97-3.83-5.25-4.24-4.14-.74-7.99,1.69-10.61,4.69Z"/>
      <path class="cls-4" d="M1160.48,630.67c-1.88,1.98-2.64,4.77-2.97,7.47-.27,2.18-.3,4.42.26,6.55s1.73,4.14,3.53,5.41,4.23,1.7,6.25.84c1.02-.44,1.89-1.17,2.67-1.96.99-1.01,1.88-2.14,2.51-3.41.74-1.49,1.13-3.14,1.29-4.8.34-3.42-.27-6.97-1.97-9.97-.83-1.47-2.05-2.88-3.7-3.24-2.99-.66-5.87.99-7.87,3.1Z"/>
      <path class="cls-4" d="M1135.9,609.95c-2.53,2.51-3.65,6.11-4.19,9.64-.44,2.84-.57,5.76.06,8.56.63,2.8,2.09,5.48,4.38,7.22s5.46,2.4,8.13,1.36c1.35-.53,2.51-1.44,3.56-2.44,1.34-1.28,2.54-2.72,3.42-4.35,1.03-1.92,1.6-4.06,1.88-6.22.58-4.46-.06-9.12-2.15-13.1-1.03-1.95-2.56-3.84-4.69-4.39-3.88-.99-7.7,1.05-10.4,3.72Z"/>
      <path class="cls-4" d="M1118.73,577.33c-1.08,1.23-1.48,2.91-1.62,4.54-.11,1.31-.08,2.65.29,3.91s1.13,2.44,2.23,3.16,2.57.93,3.76.37c.6-.28,1.1-.74,1.55-1.23.57-.63,1.08-1.32,1.43-2.1.41-.91.61-1.91.67-2.9.13-2.06-.31-4.17-1.39-5.92-.53-.86-1.29-1.68-2.28-1.86-1.8-.33-3.49.72-4.64,2.03Z"/>
      <path class="cls-4" d="M1089.36,573.31c-2.64,2.8-3.7,6.73-4.15,10.55-.37,3.08-.39,6.24.4,9.24.79,3,2.47,5.83,5,7.62s5.98,2.38,8.82,1.15c1.44-.62,2.66-1.65,3.75-2.77,1.4-1.43,2.63-3.03,3.52-4.82,1.04-2.11,1.57-4.44,1.79-6.78.46-4.83-.41-9.84-2.82-14.05-1.18-2.07-2.9-4.05-5.23-4.55-4.22-.92-8.27,1.43-11.08,4.42Z"/>
      <path class="cls-4" d="M1061.04,597.85c-2.47,2.92-3.31,6.87-3.56,10.68-.2,3.07-.06,6.21.88,9.14.94,2.93,2.75,5.65,5.36,7.29,2.61,1.64,6.05,2.05,8.81.68,1.39-.69,2.55-1.78,3.57-2.95,1.31-1.49,2.45-3.14,3.24-4.97.92-2.14,1.33-4.48,1.42-6.82.2-4.81-.93-9.73-3.54-13.78-1.28-1.99-3.09-3.86-5.43-4.24-4.23-.69-8.12,1.85-10.75,4.96Z"/>
      <path class="cls-4" d="M1041.12,564.25c-2.58,2.63-3.67,6.37-4.18,10.01-.41,2.94-.5,5.96.2,8.84s2.24,5.63,4.63,7.38,5.67,2.4,8.41,1.28c1.39-.56,2.57-1.53,3.64-2.58,1.36-1.34,2.58-2.85,3.46-4.54,1.04-1.99,1.59-4.21,1.85-6.45.54-4.61-.2-9.41-2.42-13.49-1.09-2-2.7-3.93-4.91-4.46-4.02-.96-7.93,1.2-10.68,4Z"/>
      <path class="cls-4" d="M1015.44,564.66c-1.95,2.21-2.66,5.24-2.91,8.18-.2,2.36-.15,4.78.54,7.05s2.03,4.4,4.01,5.7,4.63,1.67,6.78.66c1.08-.51,1.99-1.33,2.8-2.21,1.03-1.13,1.94-2.38,2.57-3.78.74-1.64,1.09-3.43,1.2-5.23.23-3.71-.56-7.51-2.51-10.67-.96-1.55-2.32-3.02-4.11-3.35-3.25-.6-6.29,1.3-8.36,3.66Z"/>
      <path class="cls-4" d="M992.86,563.68c-1.53,1.52-2.21,3.71-2.54,5.84-.27,1.72-.35,3.49.04,5.19s1.27,3.32,2.65,4.37,3.31,1.46,4.93.82c.82-.32,1.52-.88,2.16-1.48.81-.77,1.54-1.65,2.07-2.64.63-1.16.97-2.46,1.14-3.77.35-2.7-.04-5.53-1.3-7.94-.62-1.18-1.55-2.33-2.84-2.66-2.35-.6-4.67.64-6.3,2.26Z"/>
      <path class="cls-4" d="M967.59,559.19c-1.64,1.74-2.3,4.19-2.58,6.56-.23,1.91-.24,3.88.25,5.74s1.53,3.62,3.11,4.73,3.72,1.48,5.49.71c.89-.39,1.65-1.03,2.33-1.73.87-.89,1.64-1.89,2.18-3,.65-1.31.97-2.76,1.11-4.21.28-3-.26-6.11-1.76-8.73-.74-1.28-1.81-2.51-3.25-2.83-2.62-.57-5.14.89-6.88,2.75Z"/>
      <path class="cls-4" d="M937.26,578.28c-2.23,2.39-3.12,5.74-3.49,8.99-.3,2.62-.31,5.31.37,7.85s2.12,4.95,4.28,6.46,5.09,2,7.51.95c1.22-.53,2.25-1.42,3.18-2.37,1.18-1.22,2.23-2.59,2.97-4.11.88-1.8,1.32-3.78,1.5-5.77.37-4.11-.39-8.36-2.45-11.94-1.01-1.75-2.48-3.43-4.46-3.85-3.59-.77-7.03,1.25-9.4,3.8Z"/>
      <path class="cls-4" d="M914.71,571.68c-1.24,1.33-1.74,3.18-1.96,4.99-.17,1.45-.18,2.95.19,4.36s1.17,2.75,2.37,3.59,2.83,1.12,4.17.54c.68-.29,1.25-.78,1.77-1.31.66-.68,1.24-1.43,1.66-2.28.49-1,.74-2.1.84-3.2.21-2.28-.2-4.65-1.34-6.63-.56-.98-1.37-1.91-2.47-2.15-1.99-.43-3.9.68-5.23,2.09Z"/>
      <path class="cls-4" d="M891.9,622.25c-1.24,1.46-1.67,3.43-1.81,5.34-.11,1.54-.04,3.11.42,4.58s1.37,2.84,2.67,3.66,3.03,1.04,4.41.36c.7-.34,1.28-.89,1.79-1.47.66-.74,1.23-1.57,1.63-2.48.47-1.07.67-2.24.73-3.41.11-2.41-.44-4.87-1.74-6.91-.64-1-1.54-1.94-2.71-2.13-2.12-.36-4.07.91-5.4,2.46Z"/>
      <path class="cls-4" d="M866.16,605.74c-1.58,1.6-2.25,3.89-2.57,6.12-.26,1.8-.31,3.64.11,5.41s1.36,3.44,2.82,4.52,3.46,1.47,5.15.79c.85-.34,1.57-.93,2.23-1.57.84-.82,1.58-1.74,2.12-2.77.64-1.22.98-2.57,1.14-3.94.33-2.82-.11-5.76-1.46-8.25-.66-1.22-1.64-2.4-3-2.73-2.46-.59-4.85.73-6.54,2.44Z"/>
      <path class="cls-4" d="M842.35,621.55c-1.75,2.02-2.37,4.78-2.58,7.45-.17,2.15-.09,4.34.54,6.4s1.88,3.98,3.69,5.15,4.22,1.48,6.16.55c.98-.47,1.8-1.23,2.52-2.03.93-1.03,1.74-2.18,2.3-3.45.66-1.49.96-3.13,1.05-4.76.18-3.37-.57-6.82-2.36-9.68-.88-1.4-2.13-2.73-3.76-3.01-2.96-.52-5.7,1.23-7.57,3.39Z"/>
      <path class="cls-4" d="M817.08,615.15c-1.92,1.89-2.77,4.62-3.19,7.28-.34,2.15-.44,4.36.03,6.48s1.57,4.15,3.3,5.47,4.12,1.83,6.15,1.04c1.02-.4,1.9-1.09,2.7-1.84,1.02-.96,1.93-2.05,2.59-3.29.78-1.45,1.22-3.07,1.44-4.7.45-3.37-.03-6.9-1.6-9.91-.77-1.48-1.93-2.91-3.54-3.33-2.93-.76-5.83.78-7.88,2.8Z"/>
      <path class="cls-4" d="M790.13,612.05c-2.68,2.66-3.86,6.48-4.44,10.22-.47,3.01-.6,6.11.07,9.08.67,2.97,2.22,5.81,4.64,7.65s5.79,2.55,8.62,1.44c1.43-.56,2.66-1.53,3.78-2.59,1.42-1.35,2.69-2.88,3.62-4.61,1.09-2.03,1.7-4.3,2-6.59.62-4.73-.06-9.67-2.28-13.89-1.09-2.07-2.71-4.07-4.98-4.65-4.11-1.05-8.17,1.12-11.03,3.95Z"/>
      <path class="cls-4" d="M766.17,618.48c-2.47,2.59-3.49,6.24-3.94,9.79-.36,2.86-.41,5.8.31,8.59s2.25,5.44,4.6,7.12,5.54,2.26,8.2,1.13c1.34-.57,2.48-1.52,3.51-2.55,1.31-1.32,2.47-2.8,3.31-4.46.98-1.95,1.49-4.12,1.72-6.29.46-4.49-.32-9.15-2.53-13.08-1.09-1.93-2.67-3.78-4.83-4.27-3.92-.89-7.7,1.27-10.33,4.03Z"/>
      <path class="cls-4" d="M731.72,574.09c-1.5,1.68-2.05,4-2.26,6.24-.16,1.81-.13,3.66.38,5.4s1.54,3.37,3.05,4.37,3.54,1.3,5.18.53c.83-.39,1.53-1.01,2.15-1.68.79-.86,1.49-1.82,1.98-2.88.57-1.25.85-2.62.94-4,.19-2.83-.4-5.75-1.88-8.17-.73-1.19-1.76-2.32-3.13-2.58-2.49-.47-4.81.97-6.41,2.76Z"/>
      <path class="cls-4" d="M716.56,617.56c-1.82,1.79-2.63,4.37-3.03,6.89-.32,2.03-.42,4.13.02,6.13s1.48,3.93,3.12,5.18,3.9,1.74,5.82,1c.97-.37,1.8-1.03,2.56-1.74.96-.91,1.83-1.94,2.46-3.11.74-1.37,1.16-2.9,1.37-4.45.43-3.19-.02-6.53-1.51-9.39-.73-1.4-1.82-2.76-3.35-3.16-2.78-.72-5.52.73-7.46,2.64Z"/>
      <path class="cls-4" d="M698.9,645.43c-1.18,1.16-1.71,2.83-1.97,4.47-.21,1.32-.28,2.68,0,3.98s.96,2.55,2.01,3.36,2.53,1.13,3.77.65c.63-.24,1.17-.66,1.66-1.13.63-.59,1.19-1.26,1.6-2.01.48-.89.75-1.88.89-2.88.28-2.07,0-4.24-.96-6.09-.47-.91-1.18-1.79-2.17-2.05-1.8-.47-3.58.47-4.84,1.7Z"/>
      <path class="cls-4" d="M678.19,664.9c-1.18,1.37-1.59,3.23-1.72,5.03-.11,1.45-.05,2.93.38,4.32s1.28,2.68,2.5,3.46,2.85.99,4.16.35c.66-.32,1.21-.83,1.7-1.38.62-.7,1.17-1.48,1.55-2.33.44-1.01.64-2.11.7-3.21.11-2.27-.4-4.6-1.62-6.52-.6-.94-1.45-1.83-2.55-2.02-2-.34-3.84.85-5.1,2.31Z"/>
      <path class="cls-4" d="M629.61,595.84c-2.39,2.7-3.28,6.42-3.61,10.01-.26,2.9-.2,5.86.63,8.65s2.47,5.4,4.9,7c2.43,1.6,5.67,2.07,8.3.84,1.33-.62,2.44-1.62,3.44-2.7,1.27-1.38,2.39-2.91,3.17-4.62.92-2,1.35-4.2,1.5-6.4.3-4.54-.66-9.21-3.03-13.09-1.17-1.91-2.83-3.71-5.03-4.13-3.98-.75-7.71,1.56-10.27,4.44Z"/>
      <path class="cls-4" d="M616.54,638.27c-1.46,1.68-1.98,3.98-2.15,6.2-.14,1.79-.08,3.62.45,5.33s1.56,3.31,3.07,4.29,3.51,1.24,5.13.46c.82-.39,1.5-1.02,2.1-1.69.77-.86,1.45-1.81,1.92-2.87.55-1.24.8-2.6.88-3.96.15-2.8-.47-5.68-1.96-8.06-.73-1.17-1.77-2.27-3.13-2.51-2.46-.43-4.75,1.02-6.3,2.81Z"/>
      <path class="cls-4" d="M589.02,638.02c-2.43,2.72-3.35,6.47-3.69,10.11-.28,2.93-.23,5.93.59,8.75.82,2.82,2.47,5.47,4.92,7.11s5.73,2.12,8.4.89c1.35-.62,2.48-1.63,3.49-2.72,1.29-1.39,2.43-2.94,3.22-4.66.94-2.02,1.39-4.25,1.54-6.47.32-4.59-.62-9.32-3-13.26-1.17-1.93-2.85-3.77-5.07-4.2-4.03-.77-7.81,1.55-10.4,4.45Z"/>
      <path class="cls-4" d="M560.55,631.85c-1.94,2.3-2.6,5.42-2.8,8.42-.16,2.42-.04,4.89.7,7.2s2.17,4.45,4.23,5.74,4.77,1.61,6.94.53c1.1-.55,2-1.41,2.81-2.33,1.03-1.18,1.93-2.48,2.54-3.92.72-1.69,1.04-3.54,1.11-5.37.15-3.79-.74-7.67-2.8-10.86-1.01-1.57-2.44-3.04-4.28-3.33-3.34-.54-6.4,1.47-8.47,3.92Z"/>
      <path class="cls-4" d="M542.8,657.02c-1.79,1.89-2.51,4.55-2.82,7.14-.25,2.08-.27,4.22.26,6.25s1.66,3.95,3.38,5.16,4.04,1.62,5.97.79c.97-.42,1.8-1.12,2.54-1.87.95-.97,1.78-2.05,2.38-3.26.71-1.43,1.07-3,1.22-4.58.31-3.27-.27-6.66-1.9-9.51-.8-1.4-1.96-2.74-3.54-3.08-2.86-.63-5.6.96-7.5,2.98Z"/>
      <path class="cls-4" d="M527.63,686.88c-2.28,2.56-3.13,6.09-3.44,9.5-.25,2.75-.2,5.57.58,8.21s2.34,5.13,4.64,6.66,5.38,1.98,7.89.81c1.26-.59,2.32-1.54,3.27-2.56,1.21-1.31,2.27-2.76,3.01-4.38.87-1.9,1.29-3.99,1.43-6.08.29-4.31-.61-8.75-2.86-12.44-1.1-1.81-2.69-3.53-4.77-3.93-3.78-.72-7.33,1.48-9.76,4.21Z"/>
      <path class="cls-4" d="M487.17,654.11c-2.41,2.6-3.37,6.22-3.76,9.74-.32,2.84-.33,5.75.42,8.5s2.3,5.36,4.65,6.98,5.52,2.16,8.13,1.01c1.32-.58,2.44-1.54,3.44-2.58,1.28-1.32,2.41-2.81,3.21-4.46.95-1.95,1.42-4.1,1.61-6.25.39-4.45-.44-9.06-2.68-12.92-1.1-1.9-2.7-3.71-4.84-4.16-3.89-.82-7.61,1.36-10.18,4.13Z"/>
      <path class="cls-4" d="M459.87,659.19c-2.5,2.73-3.47,6.53-3.85,10.21-.31,2.97-.3,6.01.51,8.88.8,2.87,2.45,5.58,4.91,7.26s5.78,2.21,8.51.99c1.37-.62,2.53-1.63,3.57-2.72,1.32-1.39,2.49-2.95,3.32-4.69.97-2.04,1.45-4.29,1.63-6.55.38-4.65-.53-9.46-2.9-13.48-1.17-1.97-2.85-3.85-5.09-4.31-4.07-.83-7.94,1.49-10.6,4.4Z"/>
      <path class="cls-4" d="M442.96,681.46c-1.92,2.21-2.61,5.24-2.84,8.16-.19,2.36-.11,4.76.58,7.02s2.05,4.37,4.04,5.65,4.63,1.63,6.76.61c1.08-.52,1.97-1.34,2.77-2.23,1.02-1.13,1.91-2.39,2.53-3.78.73-1.64,1.06-3.43,1.16-5.22.2-3.69-.61-7.48-2.58-10.61-.96-1.54-2.33-2.99-4.12-3.31-3.24-.57-6.25,1.34-8.3,3.7Z"/>
      <path class="cls-4" d="M439.95,732.19c-2.66,2.66-3.82,6.47-4.39,10.19-.45,3-.58,6.08.1,9.04s2.23,5.78,4.65,7.6,5.77,2.52,8.59,1.4c1.42-.56,2.65-1.53,3.75-2.59,1.41-1.35,2.67-2.88,3.59-4.6,1.08-2.03,1.67-4.29,1.96-6.57.6-4.71-.1-9.63-2.32-13.82-1.09-2.06-2.71-4.04-4.97-4.61-4.1-1.03-8.13,1.14-10.97,3.97Z"/>
      <path class="cls-4" d="M411.47,730.78c-2.59,2.61-3.71,6.34-4.25,9.98-.43,2.93-.54,5.95.14,8.84s2.2,5.64,4.58,7.41,5.65,2.43,8.41,1.33c1.39-.56,2.58-1.51,3.66-2.55,1.37-1.33,2.6-2.83,3.49-4.52,1.05-1.99,1.62-4.2,1.89-6.43.57-4.61-.14-9.41-2.33-13.5-1.08-2.01-2.67-3.94-4.88-4.49-4.01-.99-7.94,1.15-10.71,3.93Z"/>
      <path class="cls-4" d="M402.49,767.38c-2.36,2.31-3.42,5.64-3.95,8.91-.43,2.63-.57,5.34,0,7.94s1.9,5.09,4.01,6.72,5.04,2.26,7.53,1.31c1.26-.48,2.34-1.32,3.32-2.24,1.25-1.18,2.37-2.5,3.2-4.01.97-1.77,1.51-3.75,1.79-5.75.57-4.13,0-8.46-1.91-12.16-.94-1.82-2.34-3.58-4.32-4.1-3.59-.94-7.15.92-9.67,3.39Z"/>
      <path class="cls-4" d="M364.44,749.37c-2.1,2.24-2.93,5.38-3.29,8.43-.29,2.46-.3,4.98.34,7.37s1.98,4.65,4.01,6.06,4.78,1.89,7.04.9c1.14-.5,2.11-1.33,2.98-2.22,1.11-1.14,2.09-2.42,2.8-3.86.82-1.68,1.24-3.55,1.41-5.41.35-3.86-.35-7.85-2.29-11.2-.95-1.65-2.33-3.22-4.19-3.62-3.37-.72-6.59,1.16-8.83,3.55Z"/>
      <path class="cls-4" d="M341.21,758.66c-1.12,1.31-1.51,3.08-1.63,4.8-.1,1.38-.04,2.79.37,4.11s1.22,2.55,2.39,3.29,2.72.94,3.96.33c.63-.31,1.15-.79,1.61-1.32.59-.67,1.11-1.41,1.47-2.23.42-.96.61-2.01.66-3.06.1-2.17-.39-4.38-1.55-6.21-.57-.9-1.38-1.74-2.43-1.92-1.9-.32-3.66.81-4.85,2.2Z"/>
      <path class="cls-4" d="M332.2,793.98c-1.31,1.48-1.8,3.51-1.97,5.47-.14,1.58-.11,3.2.34,4.73s1.35,2.95,2.68,3.83,3.1,1.13,4.54.46c.73-.34,1.34-.89,1.88-1.48.69-.75,1.31-1.59,1.73-2.53.5-1.1.74-2.3.82-3.5.16-2.48-.36-5.04-1.66-7.16-.64-1.04-1.55-2.03-2.75-2.26-2.18-.41-4.22.86-5.61,2.43Z"/>
      <path class="cls-4" d="M300.94,788.31c-2.6,2.62-3.72,6.37-4.25,10.02-.43,2.94-.53,5.98.15,8.87s2.22,5.66,4.61,7.43,5.68,2.44,8.44,1.33c1.39-.56,2.59-1.52,3.67-2.57,1.38-1.34,2.6-2.84,3.5-4.54,1.05-2,1.62-4.22,1.89-6.46.56-4.62-.15-9.45-2.36-13.55-1.08-2.01-2.68-3.95-4.91-4.5-4.03-.99-7.97,1.16-10.74,3.96Z"/>
      <path class="cls-4" d="M276.37,796.95c-2.1,2.25-2.94,5.41-3.3,8.47-.29,2.47-.3,5,.34,7.4.64,2.4,1.99,4.66,4.03,6.09s4.8,1.89,7.07.9c1.15-.5,2.12-1.33,3-2.23,1.12-1.15,2.1-2.44,2.81-3.87.83-1.69,1.25-3.56,1.42-5.43.35-3.87-.36-7.88-2.3-11.25-.95-1.65-2.34-3.23-4.2-3.63-3.38-.73-6.62,1.17-8.86,3.57Z"/>
      <path class="cls-4" d="M271.55,836.95c-1.88,2.05-2.61,4.9-2.91,7.66-.24,2.23-.23,4.51.37,6.67s1.83,4.19,3.68,5.46,4.34,1.67,6.38.76c1.03-.46,1.9-1.22,2.68-2.04,1-1.04,1.88-2.21,2.5-3.51.73-1.53,1.1-3.22,1.24-4.91.29-3.49-.38-7.1-2.16-10.12-.87-1.48-2.13-2.9-3.82-3.24-3.06-.63-5.96,1.1-7.96,3.29Z"/>
      <path class="cls-4" d="M228.27,813.89c-2.56,2.67-3.62,6.44-4.1,10.11-.38,2.96-.44,6,.29,8.89.73,2.89,2.32,5.63,4.74,7.38s5.73,2.35,8.48,1.2c1.39-.58,2.57-1.57,3.63-2.63,1.36-1.36,2.56-2.89,3.43-4.61,1.02-2.02,1.56-4.26,1.79-6.5.49-4.64-.3-9.47-2.58-13.54-1.12-2-2.75-3.92-4.99-4.43-4.05-.93-7.97,1.29-10.7,4.14Z"/>
      <path class="cls-4" d="M204.95,826.49c-1.12,1.21-1.55,2.9-1.73,4.54-.14,1.32-.14,2.67.21,3.95s1.08,2.49,2.18,3.24,2.57.99,3.79.46c.61-.27,1.13-.72,1.59-1.2.59-.62,1.12-1.31,1.49-2.08.44-.91.65-1.91.74-2.91.18-2.07-.22-4.21-1.27-6.01-.52-.88-1.26-1.72-2.26-1.93-1.81-.38-3.54.65-4.73,1.94Z"/>
    </g>
    <g>
      <path class="cls-3" d="M2166.14,592.1c-5.01,5.02-7.19,12.21-8.24,19.23-.85,5.66-1.07,11.48.22,17.05,1.3,5.57,4.22,10.89,8.8,14.32,4.58,3.43,10.89,4.73,16.21,2.62,2.68-1.06,4.99-2.9,7.07-4.91,2.66-2.56,5.03-5.44,6.76-8.7,2.03-3.83,3.14-8.1,3.68-12.4,1.11-8.88-.22-18.16-4.43-26.06-2.07-3.88-5.13-7.62-9.39-8.69-7.73-1.93-15.33,2.18-20.67,7.53Z"/>
      <path class="cls-3" d="M2189.8,703.45c-4.68,5.2-6.46,12.39-7.14,19.36-.55,5.61-.48,11.36,1.08,16.78,1.56,5.42,4.71,10.51,9.39,13.65,4.68,3.15,10.97,4.1,16.09,1.76,2.59-1.18,4.77-3.11,6.71-5.19,2.49-2.65,4.67-5.61,6.21-8.91,1.81-3.87,2.69-8.13,3-12.4.65-8.8-1.13-17.87-5.68-25.44-2.23-3.71-5.44-7.24-9.69-8.08-7.71-1.51-14.98,2.92-19.98,8.46Z"/>
      <path class="cls-3" d="M2089.31,633.92c-4.2,4.95-5.65,11.68-6.09,18.15-.35,5.22-.12,10.55,1.47,15.53,1.6,4.98,4.66,9.62,9.09,12.4,4.43,2.79,10.29,3.5,14.98,1.18,2.37-1.17,4.33-3.02,6.08-5,2.23-2.53,4.18-5.34,5.51-8.44,1.57-3.64,2.26-7.62,2.44-11.58.36-8.18-1.55-16.55-5.98-23.44-2.17-3.38-5.25-6.57-9.21-7.22-7.2-1.19-13.82,3.13-18.29,8.41Z"/>
      <path class="cls-3" d="M2069.33,670.73c-2.75,3.24-3.69,7.64-3.97,11.88-.23,3.42-.08,6.9.97,10.16,1.05,3.26,3.05,6.29,5.95,8.11s6.73,2.28,9.8.77c1.55-.77,2.83-1.98,3.98-3.28,1.46-1.66,2.73-3.5,3.6-5.52,1.03-2.38,1.48-4.99,1.59-7.58.23-5.35-1.02-10.83-3.92-15.33-1.42-2.21-3.44-4.3-6.03-4.72-4.71-.77-9.04,2.05-11.97,5.51Z"/>
      <path class="cls-3" d="M2033.55,710.76c-3.61,3.64-5.17,8.83-5.91,13.9-.6,4.08-.75,8.29.2,12.31.95,4.02,3.07,7.85,6.38,10.32,3.31,2.47,7.87,3.39,11.71,1.86,1.93-.77,3.6-2.11,5.09-3.56,1.91-1.85,3.62-3.94,4.86-6.29,1.46-2.77,2.25-5.85,2.63-8.96.79-6.42-.19-13.11-3.25-18.81-1.5-2.8-3.72-5.49-6.8-6.25-5.59-1.38-11.06,1.6-14.91,5.48Z"/>
      <path class="cls-3" d="M1983.56,693.84c-4.02,4.58-5.49,10.86-6.01,16.93-.41,4.89-.29,9.9,1.13,14.6,1.42,4.7,4.22,9.1,8.33,11.79,4.11,2.69,9.59,3.45,14.03,1.35,2.24-1.06,4.12-2.76,5.79-4.59,2.13-2.34,4.01-4.94,5.31-7.83,1.53-3.39,2.25-7.11,2.48-10.83.47-7.67-1.18-15.55-5.22-22.09-1.98-3.21-4.81-6.25-8.53-6.93-6.73-1.23-13.01,2.71-17.3,7.59Z"/>
      <path class="cls-3" d="M1946.71,743.91c-5.01,5.13-7.13,12.42-8.12,19.52-.79,5.72-.96,11.61.41,17.23,1.37,5.61,4.39,10.96,9.05,14.37,4.66,3.42,11.06,4.66,16.41,2.47,2.7-1.1,5.01-2.99,7.09-5.04,2.66-2.61,5.02-5.55,6.73-8.86,2.01-3.89,3.09-8.22,3.59-12.57,1.03-8.99-.42-18.35-4.76-26.29-2.13-3.9-5.27-7.64-9.59-8.67-7.84-1.87-15.46,2.37-20.81,7.84Z"/>
      <path class="cls-3" d="M1904.13,744.89c-3.74,3.63-5.42,8.89-6.26,14.04-.68,4.15-.91,8.42-.02,12.53.89,4.11,2.98,8.05,6.31,10.61,3.32,2.57,7.95,3.59,11.88,2.1,1.98-.75,3.7-2.08,5.24-3.53,1.98-1.85,3.75-3.94,5.06-6.32,1.54-2.79,2.4-5.91,2.84-9.07.91-6.51.04-13.34-2.97-19.19-1.48-2.87-3.69-5.65-6.81-6.48-5.66-1.5-11.28,1.43-15.27,5.31Z"/>
      <path class="cls-3" d="M1867.7,826.53c-3.79,4.04-5.31,9.71-5.96,15.22-.52,4.44-.55,8.99.6,13.31,1.15,4.32,3.57,8.4,7.22,10.96,3.66,2.56,8.62,3.42,12.72,1.64,2.07-.9,3.82-2.39,5.4-4.01,2.01-2.06,3.79-4.37,5.06-6.96,1.49-3.04,2.25-6.4,2.57-9.77.65-6.96-.62-14.17-4.1-20.24-1.71-2.98-4.19-5.82-7.55-6.55-6.09-1.32-11.91,2.08-15.95,6.39Z"/>
      <path class="cls-3" d="M1818.23,820.04c-3.34,3.48-4.73,8.39-5.35,13.18-.5,3.85-.58,7.82.37,11.58.95,3.77,3.01,7.34,6.17,9.62s7.46,3.07,11.05,1.57c1.81-.76,3.35-2.04,4.74-3.43,1.77-1.77,3.34-3.76,4.48-6,1.33-2.63,2.03-5.54,2.34-8.47.64-6.05-.38-12.34-3.35-17.65-1.45-2.61-3.59-5.11-6.5-5.78-5.28-1.21-10.39,1.68-13.95,5.39Z"/>
      <path class="cls-3" d="M1767.56,789.6c-3.49,3.64-4.93,8.78-5.58,13.78-.52,4.03-.6,8.17.4,12.11,1,3.94,3.16,7.68,6.46,10.05s7.81,3.2,11.55,1.63c1.89-.79,3.5-2.13,4.95-3.59,1.85-1.86,3.49-3.94,4.67-6.28,1.39-2.75,2.12-5.8,2.44-8.86.66-6.33-.41-12.9-3.52-18.45-1.52-2.73-3.75-5.34-6.8-6.04-5.52-1.26-10.86,1.77-14.58,5.65Z"/>
      <path class="cls-3" d="M1714,781.07c-5.45,5.31-7.9,12.98-9.14,20.49-1,6.05-1.33,12.29-.03,18.28,1.3,5.99,4.36,11.74,9.21,15.49,4.85,3.75,11.6,5.24,17.34,3.06,2.89-1.1,5.39-3.04,7.65-5.15,2.89-2.7,5.47-5.76,7.38-9.22,2.24-4.07,3.5-8.63,4.14-13.24,1.33-9.51.05-19.47-4.34-28.01-2.15-4.19-5.38-8.25-9.94-9.46-8.26-2.19-16.46,2.09-22.28,7.75Z"/>
      <path class="cls-3" d="M1667.51,801.12c-4.55,5.22-6.19,12.37-6.74,19.27-.45,5.56-.28,11.25,1.35,16.58,1.63,5.34,4.84,10.32,9.52,13.35,4.68,3.03,10.92,3.87,15.95,1.47,2.54-1.22,4.66-3.16,6.55-5.25,2.41-2.67,4.53-5.63,6-8.92,1.73-3.86,2.52-8.09,2.76-12.32.49-8.72-1.42-17.67-6.05-25.08-2.27-3.64-5.5-7.08-9.72-7.83-7.66-1.36-14.77,3.14-19.62,8.71Z"/>
      <path class="cls-3" d="M1625.12,756c-3.62,3.73-5.15,9.01-5.85,14.16-.56,4.15-.67,8.42.33,12.48,1,4.07,3.2,7.93,6.58,10.4,3.38,2.47,8.02,3.35,11.89,1.76,1.95-.81,3.62-2.18,5.13-3.66,1.92-1.9,3.63-4.03,4.86-6.43,1.45-2.82,2.22-5.96,2.58-9.11.73-6.51-.33-13.29-3.49-19.04-1.55-2.82-3.83-5.53-6.96-6.27-5.68-1.34-11.2,1.74-15.06,5.72Z"/>
      <path class="cls-3" d="M1579.07,804.31c-2.36,2.66-3.24,6.31-3.56,9.85-.26,2.85-.2,5.77.61,8.51s2.43,5.32,4.81,6.9,5.58,2.04,8.17.83c1.31-.61,2.41-1.6,3.39-2.66,1.25-1.36,2.35-2.87,3.12-4.54.9-1.97,1.33-4.14,1.48-6.3.3-4.47-.64-9.07-2.97-12.89-1.15-1.88-2.79-3.66-4.95-4.06-3.92-.74-7.59,1.54-10.11,4.37Z"/>
      <path class="cls-3" d="M1534.19,752.89c-3.63,3.73-5.17,9.02-5.88,14.18-.57,4.16-.69,8.43.31,12.5,1,4.07,3.19,7.95,6.58,10.43,3.39,2.48,8.03,3.37,11.91,1.78,1.96-.8,3.63-2.17,5.14-3.66,1.93-1.9,3.64-4.04,4.88-6.44,1.46-2.83,2.23-5.97,2.59-9.13.74-6.52-.32-13.32-3.47-19.08-1.55-2.83-3.83-5.54-6.97-6.29-5.69-1.35-11.22,1.73-15.1,5.71Z"/>
      <path class="cls-3" d="M1478.79,779.89c-4.44,4.52-6.33,10.95-7.22,17.22-.72,5.05-.88,10.25.32,15.22,1.2,4.96,3.85,9.69,7.95,12.72,4.11,3.03,9.76,4.14,14.48,2.22,2.39-.97,4.43-2.63,6.27-4.43,2.35-2.3,4.45-4.89,5.97-7.81,1.79-3.43,2.75-7.25,3.2-11.09.93-7.93-.32-16.21-4.14-23.23-1.87-3.45-4.63-6.76-8.45-7.68-6.92-1.67-13.66,2.05-18.4,6.87Z"/>
      <path class="cls-3" d="M1428.35,788.8c-3.35,3.67-4.64,8.78-5.15,13.72-.41,3.99-.38,8.07.7,11.93,1.08,3.86,3.3,7.49,6.62,9.74,3.31,2.25,7.77,2.96,11.43,1.31,1.84-.83,3.4-2.19,4.79-3.66,1.78-1.87,3.34-3.97,4.45-6.3,1.3-2.74,1.94-5.77,2.18-8.8.5-6.25-.73-12.7-3.93-18.1-1.57-2.65-3.83-5.17-6.85-5.78-5.47-1.1-10.66,2.01-14.23,5.93Z"/>
      <path class="cls-3" d="M1386.17,730.11c-5.08,5.85-6.89,13.85-7.5,21.58-.49,6.22-.29,12.59,1.55,18.55,1.84,5.97,5.44,11.54,10.68,14.92,5.25,3.38,12.23,4.31,17.85,1.61,2.84-1.37,5.21-3.55,7.32-5.89,2.7-2.99,5.06-6.31,6.69-9.99,1.92-4.33,2.8-9.06,3.06-13.79.53-9.76-1.63-19.76-6.82-28.04-2.55-4.06-6.17-7.91-10.9-8.74-8.57-1.51-16.52,3.55-21.94,9.79Z"/>
      <path class="cls-3" d="M1353.15,682.33c-4.36,4.79-6.05,11.44-6.71,17.88-.54,5.19-.5,10.51.91,15.54,1.41,5.02,4.3,9.75,8.62,12.69,4.31,2.94,10.13,3.85,14.89,1.71,2.4-1.08,4.43-2.86,6.24-4.77,2.31-2.44,4.36-5.17,5.8-8.21,1.69-3.58,2.53-7.51,2.84-11.46.65-8.14-.95-16.55-5.12-23.58-2.05-3.45-4.99-6.73-8.93-7.53-7.13-1.44-13.88,2.62-18.53,7.73Z"/>
      <path class="cls-3" d="M1275.14,775.49c-3.81,4.26-5.25,10.14-5.79,15.84-.43,4.59-.36,9.29.93,13.71,1.29,4.42,3.88,8.58,7.71,11.14,3.83,2.56,8.97,3.32,13.16,1.39,2.11-.97,3.89-2.56,5.47-4.26,2.02-2.17,3.8-4.6,5.05-7.3,1.47-3.17,2.17-6.65,2.42-10.14.51-7.2-.97-14.6-4.71-20.78-1.83-3.03-4.46-5.91-7.94-6.58-6.31-1.21-12.24,2.42-16.3,6.97Z"/>
      <path class="cls-3" d="M1235,724.27c-4.45,5.2-6.02,12.27-6.52,19.1-.4,5.5-.19,11.12,1.46,16.38,1.65,5.26,4.86,10.16,9.51,13.13,4.65,2.96,10.82,3.75,15.78,1.33,2.5-1.22,4.58-3.16,6.44-5.24,2.37-2.65,4.43-5.6,5.86-8.86,1.68-3.83,2.43-8.02,2.64-12.19.42-8.62-1.54-17.45-6.16-24.74-2.27-3.58-5.49-6.95-9.67-7.67-7.58-1.29-14.58,3.21-19.33,8.76Z"/>
      <path class="cls-3" d="M1188.6,739.2c-2.58,2.84-3.58,6.77-3.97,10.59-.32,3.07-.29,6.22.55,9.2s2.55,5.77,5.11,7.51,6,2.28,8.81,1.01c1.42-.64,2.62-1.69,3.69-2.83,1.37-1.45,2.58-3.06,3.43-4.86,1-2.12,1.49-4.45,1.68-6.79.38-4.82-.57-9.8-3.04-13.96-1.21-2.04-2.96-3.99-5.29-4.45-4.22-.85-8.22,1.56-10.97,4.58Z"/>
      <path class="cls-3" d="M1154.65,661.05c-2.89,3.31-3.94,7.85-4.29,12.23-.29,3.53-.18,7.14.85,10.53,1.03,3.39,3.06,6.55,6.03,8.48,2.97,1.93,6.93,2.47,10.12.94,1.61-.77,2.96-2,4.16-3.33,1.53-1.69,2.88-3.57,3.81-5.66,1.1-2.45,1.61-5.13,1.76-7.81.32-5.53-.89-11.21-3.82-15.92-1.44-2.31-3.49-4.5-6.17-4.98-4.86-.87-9.38,1.98-12.46,5.51Z"/>
      <path class="cls-3" d="M1097.02,649.23c-4.44,4.39-6.4,10.7-7.37,16.87-.78,4.97-1.01,10.1.09,15,1.11,4.91,3.65,9.61,7.65,12.65,4.01,3.05,9.56,4.22,14.25,2.4,2.37-.92,4.41-2.53,6.25-4.27,2.35-2.23,4.46-4.76,6-7.61,1.81-3.36,2.82-7.11,3.32-10.89,1.03-7.81-.08-15.98-3.74-22.96-1.79-3.43-4.47-6.74-8.21-7.7-6.79-1.75-13.5,1.82-18.24,6.5Z"/>
      <path class="cls-3" d="M1045.08,633.99c-5.36,5.59-7.57,13.47-8.56,21.15-.8,6.18-.92,12.54.62,18.58,1.54,6.04,4.84,11.78,9.91,15.42,5.06,3.64,11.98,4.91,17.73,2.49,2.9-1.22,5.37-3.28,7.6-5.51,2.84-2.85,5.36-6.05,7.17-9.63,2.13-4.22,3.25-8.9,3.74-13.6,1.02-9.71-.64-19.79-5.4-28.31-2.34-4.18-5.76-8.19-10.43-9.26-8.47-1.93-16.66,2.71-22.37,8.67Z"/>
      <path class="cls-3" d="M993.28,633.24c-3.27,3.75-4.45,8.88-4.85,13.83-.32,3.99-.21,8.08.96,11.91,1.17,3.83,3.47,7.41,6.83,9.59,3.36,2.18,7.84,2.79,11.45,1.06,1.82-.87,3.35-2.27,4.71-3.76,1.73-1.91,3.26-4.04,4.31-6.4,1.24-2.77,1.81-5.81,1.99-8.84.36-6.26-1.01-12.68-4.33-18.01-1.63-2.61-3.95-5.08-6.98-5.63-5.5-.98-10.61,2.25-14.09,6.24Z"/>
      <path class="cls-3" d="M944.15,593.75c-3.92,3.93-5.63,9.56-6.45,15.05-.66,4.42-.84,8.98.17,13.34,1.01,4.36,3.3,8.52,6.88,11.21,3.58,2.68,8.52,3.7,12.68,2.05,2.1-.83,3.9-2.27,5.53-3.84,2.08-2,3.93-4.26,5.29-6.8,1.59-3,2.46-6.34,2.88-9.7.87-6.95-.17-14.21-3.46-20.39-1.62-3.03-4.01-5.96-7.35-6.8-6.05-1.51-11.99,1.7-16.18,5.89Z"/>
      <path class="cls-3" d="M894.49,670.38c-3.17,3.5-4.37,8.36-4.84,13.06-.37,3.79-.33,7.67.72,11.33,1.05,3.66,3.17,7.1,6.33,9.22,3.16,2.13,7.4,2.78,10.86,1.2,1.75-.8,3.22-2.1,4.53-3.5,1.68-1.79,3.16-3.79,4.2-6.01,1.22-2.61,1.82-5.49,2.03-8.36.44-5.94-.75-12.06-3.81-17.17-1.5-2.51-3.66-4.89-6.53-5.46-5.2-1.03-10.11,1.96-13.49,5.7Z"/>
      <path class="cls-3" d="M842.81,703.8c-4.8,4.88-6.84,11.84-7.8,18.62-.77,5.46-.94,11.08.35,16.45,1.29,5.36,4.16,10.47,8.6,13.74,4.44,3.27,10.55,4.47,15.66,2.39,2.58-1.05,4.79-2.84,6.78-4.79,2.54-2.49,4.8-5.29,6.45-8.44,1.93-3.71,2.97-7.84,3.45-11.99,1-8.58-.35-17.52-4.48-25.1-2.02-3.72-5.01-7.31-9.13-8.3-7.47-1.8-14.77,2.22-19.88,7.43Z"/>
      <path class="cls-3" d="M787.42,616.26c-2.46,2.84-3.34,6.72-3.64,10.46-.24,3.02-.14,6.1.75,8.99.89,2.89,2.64,5.59,5.18,7.23,2.54,1.64,5.93,2.09,8.65.78,1.38-.66,2.53-1.72,3.55-2.85,1.31-1.45,2.45-3.06,3.24-4.84.93-2.1,1.36-4.39,1.48-6.68.26-4.73-.79-9.58-3.31-13.59-1.24-1.97-2.99-3.83-5.28-4.24-4.15-.73-8.01,1.72-10.63,4.75Z"/>
      <path class="cls-3" d="M742.71,690.13c-2.57,2.86-3.55,6.82-3.92,10.65-.3,3.09-.26,6.25.6,9.23.86,2.98,2.6,5.78,5.17,7.51s6.03,2.25,8.85.96c1.42-.65,2.62-1.71,3.69-2.86,1.37-1.46,2.57-3.09,3.41-4.9.99-2.13,1.47-4.47,1.64-6.82.35-4.84-.63-9.83-3.14-13.99-1.23-2.04-2.99-3.98-5.33-4.44-4.24-.83-8.24,1.61-10.98,4.67Z"/>
      <path class="cls-3" d="M675.7,620.87c-2.86,3.18-3.94,7.57-4.35,11.83-.33,3.43-.28,6.94.67,10.25.95,3.31,2.88,6.42,5.74,8.34s6.7,2.5,9.83,1.06c1.58-.72,2.91-1.9,4.1-3.17,1.52-1.62,2.85-3.43,3.79-5.44,1.1-2.37,1.64-4.97,1.83-7.57.39-5.38-.7-10.92-3.48-15.54-1.36-2.27-3.33-4.42-5.92-4.93-4.71-.92-9.15,1.79-12.2,5.18Z"/>
      <path class="cls-3" d="M628.6,631.63c-2.13,2.4-2.93,5.7-3.22,8.89-.24,2.57-.19,5.21.54,7.69.73,2.48,2.19,4.8,4.34,6.23s5.04,1.85,7.38.76c1.18-.55,2.18-1.44,3.06-2.4,1.13-1.22,2.13-2.59,2.82-4.1.82-1.78,1.21-3.74,1.34-5.69.27-4.04-.57-8.19-2.67-11.65-1.03-1.7-2.51-3.31-4.46-3.68-3.54-.67-6.86,1.38-9.13,3.93Z"/>
      <path class="cls-3" d="M583.42,703.86c-4.94,5.84-6.65,13.76-7.15,21.4-.41,6.15-.14,12.43,1.75,18.3,1.89,5.87,5.5,11.33,10.72,14.61,5.22,3.28,12.12,4.11,17.65,1.38,2.79-1.38,5.1-3.56,7.16-5.9,2.63-2.98,4.92-6.29,6.49-9.95,1.85-4.29,2.66-8.98,2.86-13.65.41-9.64-1.84-19.5-7.06-27.61-2.56-3.98-6.19-7.73-10.86-8.5-8.48-1.39-16.28,3.7-21.55,9.93Z"/>
      <path class="cls-3" d="M567.93,795.82c-2.68,2.77-3.8,6.7-4.31,10.53-.41,3.08-.48,6.25.27,9.27s2.39,5.88,4.91,7.71,5.96,2.47,8.84,1.28c1.45-.6,2.69-1.62,3.8-2.73,1.42-1.41,2.68-3,3.6-4.79,1.07-2.1,1.64-4.43,1.89-6.77.53-4.84-.28-9.87-2.63-14.13-1.16-2.09-2.86-4.1-5.18-4.64-4.22-.98-8.31,1.32-11.17,4.28Z"/>
      <path class="cls-3" d="M504.26,773.48c-5.23,5.6-7.31,13.44-8.19,21.05-.71,6.13-.74,12.43.87,18.39,1.6,5.96,4.96,11.59,10.02,15.13,5.06,3.53,11.93,4.7,17.58,2.23,2.86-1.25,5.28-3.32,7.45-5.55,2.77-2.86,5.22-6.06,6.97-9.63,2.05-4.21,3.09-8.85,3.52-13.51.88-9.62-.9-19.59-5.73-27.96-2.37-4.11-5.81-8.03-10.45-9.03-8.41-1.8-16.45,2.91-22.03,8.89Z"/>
      <path class="cls-3" d="M477.42,828.25c-4.04,3.97-5.84,9.69-6.73,15.28-.72,4.51-.95,9.15.04,13.6.99,4.45,3.28,8.72,6.9,11.49,3.62,2.77,8.65,3.86,12.91,2.22,2.15-.83,4-2.28,5.68-3.86,2.14-2.02,4.05-4.3,5.46-6.89,1.65-3.04,2.57-6.44,3.04-9.86.96-7.08-.03-14.49-3.32-20.83-1.62-3.11-4.03-6.12-7.42-7-6.15-1.6-12.24,1.61-16.55,5.84Z"/>
      <path class="cls-3" d="M370.41,725.28c-4.4,5.04-6,11.95-6.55,18.62-.44,5.38-.29,10.87,1.28,16.04,1.57,5.16,4.66,9.99,9.18,12.93,4.52,2.94,10.55,3.76,15.42,1.45,2.46-1.17,4.51-3.05,6.34-5.06,2.34-2.57,4.39-5.44,5.81-8.61,1.67-3.73,2.45-7.82,2.69-11.9.49-8.43-1.34-17.08-5.8-24.25-2.19-3.52-5.31-6.85-9.39-7.59-7.4-1.33-14.29,3.01-18.99,8.39Z"/>
      <path class="cls-3" d="M397.91,883.53c-2.68,2.67-3.84,6.5-4.41,10.23-.46,3.01-.58,6.11.1,9.08.68,2.97,2.24,5.8,4.67,7.64s5.8,2.53,8.63,1.41c1.43-.56,2.66-1.54,3.77-2.61,1.42-1.36,2.68-2.89,3.61-4.62,1.09-2.04,1.68-4.31,1.98-6.6.6-4.73-.09-9.67-2.33-13.88-1.1-2.07-2.72-4.06-4.99-4.64-4.12-1.04-8.16,1.14-11.02,3.99Z"/>
      <path class="cls-3" d="M311.51,837.87c-5.15,5.69-7.11,13.57-7.87,21.21-.61,6.15-.54,12.45,1.15,18.4,1.7,5.94,5.14,11.53,10.27,14.99,5.12,3.46,12.02,4.52,17.64,1.96,2.84-1.29,5.23-3.4,7.37-5.68,2.73-2.9,5.13-6.15,6.83-9.76,1.99-4.24,2.96-8.91,3.31-13.59.73-9.65-1.21-19.6-6.18-27.9-2.44-4.08-5.95-7.95-10.61-8.87-8.45-1.67-16.43,3.17-21.92,9.24Z"/>
      <path class="cls-3" d="M239.03,826.46c-2.97,3.21-4.14,7.7-4.62,12.05-.39,3.51-.39,7.1.54,10.5.93,3.4,2.86,6.61,5.76,8.62,2.9,2,6.83,2.65,10.05,1.23,1.63-.72,3.01-1.91,4.24-3.19,1.58-1.64,2.97-3.47,3.96-5.52,1.16-2.41,1.74-5.07,1.97-7.73.48-5.5-.57-11.19-3.35-15.96-1.37-2.34-3.34-4.57-6-5.13-4.81-1.01-9.39,1.71-12.56,5.13Z"/>
      <path class="cls-3" d="M224.12,890.79c-2.87,2.96-4.06,7.16-4.61,11.24-.44,3.29-.52,6.68.28,9.9.8,3.22,2.55,6.28,5.24,8.23,2.69,1.95,6.37,2.65,9.43,1.37,1.55-.64,2.87-1.73,4.06-2.91,1.52-1.51,2.87-3.21,3.84-5.11,1.15-2.24,1.75-4.73,2.03-7.23.57-5.17-.29-10.54-2.81-15.09-1.23-2.23-3.05-4.38-5.53-4.96-4.51-1.05-8.88,1.4-11.93,4.56Z"/>
      <path class="cls-3" d="M185.48,923.79c-2.66,3.14-3.57,7.41-3.85,11.52-.22,3.31-.07,6.69.94,9.85,1.02,3.16,2.96,6.1,5.77,7.86,2.81,1.76,6.53,2.21,9.5.74,1.5-.74,2.75-1.92,3.85-3.18,1.41-1.61,2.65-3.39,3.49-5.35.99-2.31,1.43-4.83,1.54-7.35.22-5.19-.99-10.49-3.81-14.86-1.38-2.14-3.33-4.16-5.85-4.57-4.56-.75-8.76,1.99-11.59,5.34Z"/>
      <path class="cls-3" d="M86.07,960.3c-3.95,4.42-5.43,10.52-5.98,16.42-.44,4.76-.36,9.62.98,14.21,1.34,4.58,4.03,8.88,8,11.53,3.97,2.65,9.3,3.44,13.64,1.43,2.19-1.01,4.03-2.65,5.67-4.42,2.1-2.26,3.94-4.77,5.23-7.57,1.52-3.29,2.25-6.9,2.5-10.51.52-7.46-1.02-15.13-4.9-21.53-1.9-3.14-4.63-6.12-8.24-6.81-6.54-1.25-12.68,2.53-16.89,7.24Z"/>
    </g>
    <g>
      <path class="cls-3" d="M2150.11,593.52c-5.75,6.34-7.96,15.13-8.83,23.64-.7,6.86-.63,13.89,1.25,20.53,1.88,6.63,5.71,12.88,11.42,16.75,5.71,3.87,13.39,5.07,19.67,2.22,3.17-1.44,5.84-3.78,8.23-6.32,3.05-3.23,5.74-6.84,7.64-10.87,2.23-4.73,3.32-9.93,3.73-15.15.83-10.76-1.3-21.86-6.82-31.14-2.71-4.55-6.62-8.89-11.81-9.92-9.43-1.88-18.34,3.5-24.47,10.26Z"/>
      <path class="cls-3" d="M2194.42,692.78c-5.65,6.63-7.61,15.64-8.22,24.33-.49,7-.2,14.15,1.93,20.84,2.13,6.69,6.22,12.91,12.15,16.66,5.93,3.75,13.78,4.72,20.08,1.63,3.18-1.56,5.82-4.04,8.17-6.69,3-3.39,5.62-7.15,7.42-11.3,2.12-4.88,3.06-10.21,3.3-15.53.5-10.97-2.03-22.2-7.95-31.45-2.9-4.54-7.02-8.82-12.33-9.71-9.65-1.61-18.54,4.15-24.56,11.22Z"/>
      <path class="cls-3" d="M2142.46,765.43c-8.64,9.53-11.95,22.75-13.23,35.55-1.03,10.31-.93,20.88,1.91,30.85,2.84,9.97,8.61,19.35,17.19,25.15,8.59,5.81,20.14,7.6,29.58,3.31,4.76-2.16,8.78-5.7,12.36-9.51,4.58-4.87,8.62-10.3,11.46-16.35,3.35-7.11,4.98-14.94,5.58-22.78,1.23-16.18-1.99-32.86-10.31-46.8-4.08-6.84-9.96-13.35-17.77-14.9-14.17-2.82-27.56,5.29-36.77,15.46Z"/>
      <path class="cls-3" d="M2095.35,885.84c-8.62,10.08-11.63,23.79-12.58,37.02-.76,10.66-.34,21.54,2.88,31.73,3.22,10.19,9.44,19.67,18.46,25.4,9.02,5.73,20.97,7.23,30.57,2.53,4.84-2.37,8.87-6.13,12.46-10.16,4.58-5.15,8.57-10.87,11.33-17.18,3.24-7.43,4.69-15.54,5.07-23.63.79-16.71-3.03-33.8-12.01-47.91-4.41-6.93-10.66-13.45-18.75-14.82-14.68-2.48-28.23,6.27-37.42,17.02Z"/>
      <path class="cls-3" d="M1968.32,796.1c-6.71,7.48-9.24,17.81-10.19,27.81-.77,8.06-.65,16.31,1.61,24.09,2.25,7.78,6.8,15.07,13.52,19.58,6.73,4.5,15.76,5.85,23.11,2.47,3.71-1.71,6.83-4.48,9.62-7.47,3.56-3.82,6.69-8.08,8.89-12.81,2.59-5.57,3.83-11.69,4.27-17.81.9-12.64-1.68-25.66-8.23-36.51-3.22-5.33-7.83-10.38-13.94-11.57-11.08-2.14-21.5,4.24-28.65,12.21Z"/>
      <path class="cls-3" d="M1903.97,903.36c-4.71,5.5-6.36,12.99-6.88,20.21-.42,5.82-.19,11.76,1.56,17.32,1.75,5.56,5.15,10.74,10.07,13.87,4.92,3.13,11.45,3.95,16.69,1.39,2.65-1.29,4.85-3.34,6.8-5.54,2.5-2.81,4.68-5.93,6.19-9.38,1.77-4.05,2.56-8.48,2.77-12.9.44-9.12-1.64-18.45-6.54-26.16-2.41-3.78-5.81-7.35-10.23-8.1-8.02-1.36-15.42,3.41-20.44,9.28Z"/>
      <path class="cls-3" d="M1793.17,823.28c-9.16,10.01-12.72,23.93-14.14,37.43-1.15,10.87-1.09,22.02,1.85,32.55,2.94,10.53,8.98,20.45,18,26.62,9.03,6.17,21.2,8.12,31.18,3.65,5.04-2.26,9.29-5.96,13.09-9.96,4.86-5.11,9.15-10.82,12.18-17.18,3.57-7.48,5.33-15.73,6-23.99,1.39-17.06-1.93-34.67-10.63-49.41-4.27-7.24-10.44-14.13-18.67-15.81-14.93-3.04-29.09,5.44-38.86,16.11Z"/>
      <path class="cls-3" d="M1714.86,759.81c-7.75,7.89-11.06,19.12-12.61,30.07-1.25,8.82-1.53,17.9.56,26.57,2.09,8.66,6.71,16.92,13.89,22.2,7.17,5.29,17.03,7.23,25.29,3.88,4.17-1.69,7.74-4.59,10.95-7.73,4.11-4.02,7.76-8.54,10.42-13.64,3.12-5.99,4.8-12.66,5.59-19.37,1.63-13.85-.56-28.3-7.22-40.55-3.27-6.02-8.09-11.81-14.74-13.42-12.07-2.91-23.85,3.58-32.12,11.99Z"/>
      <path class="cls-3" d="M1622.76,817.85c-8.79,8.67-12.68,21.16-14.6,33.36-1.55,9.83-2.02,19.97.16,29.68,2.18,9.71,7.2,19.01,15.12,25.04,7.92,6.03,18.9,8.37,28.18,4.77,4.68-1.82,8.72-4.99,12.37-8.45,4.66-4.42,8.82-9.41,11.87-15.05,3.59-6.64,5.58-14.05,6.58-21.53,2.06-15.44-.13-31.61-7.35-45.42-3.54-6.78-8.83-13.33-16.23-15.24-13.43-3.47-26.7,3.58-36.08,12.83Z"/>
      <path class="cls-3" d="M1469.15,655.82c-10.15,11.27-14,26.86-15.47,41.96-1.18,12.16-1.02,24.62,2.36,36.37,3.38,11.74,10.22,22.78,20.36,29.59,10.15,6.81,23.77,8.88,34.88,3.79,5.61-2.57,10.33-6.75,14.54-11.25,5.38-5.75,10.12-12.17,13.46-19.31,3.92-8.4,5.81-17.63,6.49-26.87,1.4-19.08-2.47-38.74-12.33-55.13-4.84-8.05-11.79-15.7-21.01-17.5-16.72-3.27-32.47,6.34-43.29,18.36Z"/>
      <path class="cls-3" d="M1376.71,671.34c-6.07,6.88-8.31,16.33-9.11,25.47-.64,7.36-.47,14.9,1.64,21.98,2.11,7.08,6.31,13.72,12.49,17.78,6.18,4.06,14.43,5.23,21.12,2.09,3.38-1.59,6.21-4.14,8.73-6.89,3.22-3.51,6.05-7.42,8.03-11.76,2.32-5.1,3.41-10.7,3.77-16.29.73-11.55-1.72-23.42-7.78-33.27-2.97-4.84-7.22-9.43-12.81-10.46-10.13-1.88-19.6,4.02-26.08,11.36Z"/>
      <path class="cls-3" d="M1218.72,845.95c-6.69,7.77-9.06,18.36-9.82,28.58-.62,8.23-.32,16.65,2.14,24.53,2.46,7.88,7.24,15.23,14.2,19.68,6.95,4.45,16.19,5.64,23.62,2.04,3.75-1.82,6.87-4.71,9.65-7.82,3.55-3.97,6.66-8.37,8.8-13.25,2.52-5.73,3.66-12,3.98-18.25.66-12.91-2.25-26.13-9.15-37.06-3.39-5.36-8.2-10.43-14.45-11.51-11.34-1.96-21.84,4.77-28.97,13.05Z"/>
      <path class="cls-3" d="M1138.04,795.43c-4.67,4.62-6.74,11.26-7.75,17.75-.82,5.23-1.07,10.62.1,15.79,1.16,5.16,3.84,10.11,8.05,13.31,4.21,3.2,10.05,4.45,14.99,2.53,2.49-.97,4.64-2.66,6.57-4.5,2.47-2.35,4.69-5.01,6.31-8.01,1.91-3.53,2.96-7.48,3.49-11.46,1.09-8.22-.08-16.82-3.93-24.16-1.89-3.6-4.7-7.09-8.64-8.1-7.15-1.84-14.2,1.92-19.19,6.84Z"/>
      <path class="cls-3" d="M1027.23,806.19c-8.36,8.14-12.1,19.9-13.99,31.41-1.52,9.27-2.03,18.84-.03,28.02,2,9.18,6.69,17.99,14.13,23.73,7.44,5.74,17.79,8.02,26.57,4.67,4.43-1.69,8.26-4.66,11.73-7.9,4.42-4.14,8.38-8.83,11.3-14.14,3.43-6.24,5.35-13.23,6.34-20.29,2.04-14.57.06-29.85-6.67-42.93-3.31-6.42-8.25-12.64-15.24-14.49-12.66-3.35-25.23,3.22-34.14,11.9Z"/>
      <path class="cls-3" d="M928.41,823.82c-6.59,7.5-9,17.8-9.85,27.76-.68,8.02-.47,16.22,1.85,23.93,2.32,7.71,6.91,14.92,13.65,19.32,6.74,4.41,15.73,5.66,23,2.22,3.67-1.74,6.75-4.53,9.48-7.53,3.5-3.83,6.57-8.1,8.71-12.83,2.51-5.56,3.69-11.66,4.06-17.75.77-12.58-1.94-25.49-8.56-36.21-3.25-5.26-7.89-10.24-13.98-11.35-11.04-2.02-21.33,4.44-28.36,12.44Z"/>
      <path class="cls-3" d="M816.15,662.24c-6.82,7.12-9.64,17.18-10.89,26.96-1.01,7.88-1.16,15.99.81,23.69,1.96,7.7,6.18,15.01,12.64,19.64,6.46,4.63,15.27,6.25,22.6,3.17,3.7-1.56,6.85-4.18,9.68-7.02,3.62-3.63,6.83-7.71,9.13-12.28,2.72-5.38,4.13-11.34,4.76-17.34,1.29-12.37-.83-25.23-6.91-36.09-2.98-5.33-7.35-10.44-13.31-11.8-10.8-2.46-21.23,3.47-28.51,11.07Z"/>
      <path class="cls-3" d="M713.25,733.94c-5.5,6.51-7.38,15.33-7.94,23.84-.45,6.85-.13,13.84,1.97,20.38,2.11,6.53,6.14,12.61,11.96,16.25,5.82,3.65,13.51,4.56,19.66,1.51,3.1-1.54,5.68-3.97,7.97-6.58,2.92-3.33,5.47-7.02,7.21-11.08,2.05-4.78,2.95-10,3.17-15.2.44-10.74-2.08-21.71-7.9-30.74-2.86-4.43-6.9-8.6-12.11-9.45-9.45-1.54-18.12,4.14-23.98,11.08Z"/>
      <path class="cls-3" d="M628.19,822.81c-7.34,7.66-10.36,18.47-11.72,28.99-1.09,8.48-1.24,17.19.87,25.47,2.11,8.28,6.65,16.14,13.59,21.12,6.94,4.98,16.42,6.72,24.3,3.4,3.98-1.67,7.36-4.5,10.41-7.55,3.89-3.9,7.34-8.29,9.82-13.21,2.92-5.78,4.44-12.2,5.12-18.64,1.39-13.31-.89-27.13-7.43-38.8-3.21-5.73-7.9-11.23-14.31-12.68-11.61-2.64-22.83,3.73-30.65,11.9Z"/>
      <path class="cls-3" d="M490.3,771.65c-7.35,7.75-10.34,18.66-11.64,29.25-1.05,8.54-1.16,17.31,1,25.64,2.17,8.33,6.78,16.21,13.8,21.19,7.02,4.98,16.57,6.68,24.48,3.3,3.99-1.71,7.39-4.56,10.44-7.66,3.89-3.95,7.35-8.38,9.82-13.35,2.91-5.84,4.41-12.3,5.05-18.8,1.33-13.4-1.04-27.31-7.68-39.03-3.26-5.75-8.02-11.26-14.47-12.7-11.71-2.6-22.97,3.87-30.8,12.14Z"/>
      <path class="cls-3" d="M428.98,870.55c-7.19,7.27-10.27,17.64-11.73,27.76-1.18,8.15-1.46,16.54.45,24.56,1.91,8.01,6.16,15.65,12.78,20.56,6.62,4.91,15.72,6.73,23.36,3.65,3.86-1.55,7.16-4.22,10.14-7.12,3.81-3.7,7.2-7.88,9.67-12.58,2.9-5.53,4.47-11.69,5.21-17.89,1.54-12.8-.44-26.16-6.57-37.5-3-5.57-7.45-10.94-13.59-12.44-11.15-2.73-22.06,3.25-29.72,11Z"/>
      <path class="cls-3" d="M345.23,937.7c-10.43,11.31-14.53,27.08-16.2,42.38-1.35,12.32-1.33,24.97,1.95,36.92,3.29,11.95,10.09,23.23,20.3,30.26,10.21,7.04,24.01,9.3,35.34,4.27,5.72-2.54,10.56-6.72,14.89-11.24,5.53-5.77,10.42-12.23,13.88-19.43,4.08-8.47,6.11-17.81,6.91-27.18,1.65-19.34-2.04-39.32-11.84-56.08-4.81-8.22-11.77-16.07-21.1-18-16.92-3.52-33.01,6.04-44.14,18.1Z"/>
    </g>
    <g>
      <path class="cls-4" d="M2188.45,726.74c-4.42,5.17-5.97,12.21-6.46,18.99-.39,5.47-.18,11.05,1.47,16.28,1.65,5.23,4.84,10.1,9.47,13.04,4.63,2.94,10.76,3.71,15.69,1.31,2.49-1.22,4.55-3.14,6.39-5.21,2.35-2.64,4.4-5.57,5.82-8.81,1.66-3.81,2.41-7.97,2.61-12.13.41-8.57-1.55-17.35-6.15-24.59-2.26-3.56-5.47-6.91-9.62-7.61-7.54-1.28-14.49,3.21-19.21,8.72Z"/>
      <path class="cls-4" d="M2175.71,778.21c-3.36,3.46-4.77,8.36-5.42,13.13-.52,3.85-.62,7.8.31,11.57.93,3.77,2.97,7.35,6.11,9.64,3.14,2.29,7.44,3.11,11.03,1.63,1.81-.75,3.36-2.02,4.75-3.4,1.78-1.76,3.36-3.74,4.51-5.97,1.35-2.62,2.06-5.53,2.39-8.45.67-6.04-.32-12.33-3.25-17.65-1.44-2.61-3.55-5.13-6.46-5.81-5.27-1.24-10.38,1.62-13.96,5.3Z"/>
      <path class="cls-4" d="M2138.77,839.54c-4.2,4.66-5.8,11.11-6.42,17.35-.49,5.03-.43,10.19.96,15.05,1.39,4.86,4.22,9.43,8.41,12.25,4.19,2.82,9.83,3.68,14.43,1.58,2.32-1.06,4.28-2.79,6.02-4.65,2.23-2.38,4.19-5.03,5.58-7.99,1.62-3.47,2.41-7.29,2.7-11.12.59-7.89-1.01-16.03-5.08-22.82-2-3.33-4.87-6.5-8.69-7.25-6.92-1.36-13.44,2.61-17.92,7.58Z"/>
      <path class="cls-4" d="M2083.5,832.2c-5.15,5.73-7.1,13.64-7.84,21.3-.6,6.17-.51,12.5,1.21,18.46,1.72,5.96,5.19,11.56,10.35,15.01,5.15,3.46,12.07,4.5,17.71,1.91,2.85-1.31,5.24-3.43,7.38-5.72,2.73-2.92,5.13-6.18,6.82-9.81,1.99-4.26,2.94-8.95,3.28-13.64.7-9.69-1.27-19.66-6.28-27.98-2.46-4.08-5.99-7.96-10.67-8.87-8.49-1.65-16.48,3.23-21.97,9.34Z"/>
      <path class="cls-4" d="M2057.67,741.32c-2.88,2.82-4.17,6.9-4.81,10.88-.52,3.21-.68,6.52.02,9.69.7,3.17,2.33,6.22,4.91,8.19s6.16,2.76,9.2,1.59c1.53-.59,2.85-1.62,4.05-2.74,1.53-1.44,2.89-3.06,3.89-4.9,1.18-2.16,1.84-4.58,2.17-7.02.69-5.04,0-10.32-2.35-14.84-1.15-2.22-2.87-4.36-5.28-5-4.38-1.15-8.72,1.14-11.8,4.15Z"/>
      <path class="cls-4" d="M2004.86,743.23c-2.73,2.97-3.8,7.1-4.24,11.12-.35,3.23-.35,6.55.52,9.68s2.65,6.09,5.33,7.93,6.3,2.43,9.27,1.11c1.5-.67,2.77-1.76,3.9-2.95,1.45-1.51,2.73-3.21,3.64-5.1,1.07-2.22,1.6-4.67,1.81-7.13.43-5.07-.54-10.31-3.11-14.7-1.26-2.16-3.09-4.21-5.54-4.72-4.44-.92-8.66,1.59-11.57,4.75Z"/>
      <path class="cls-4" d="M1943.45,793.39c-3.42,3.76-4.73,8.98-5.25,14.04-.42,4.07-.38,8.25.73,12.19,1.11,3.94,3.39,7.65,6.78,9.95s7.95,3.01,11.68,1.33c1.88-.85,3.47-2.25,4.89-3.75,1.81-1.92,3.41-4.06,4.54-6.45,1.33-2.81,1.98-5.9,2.22-8.99.5-6.39-.77-12.98-4.04-18.49-1.61-2.7-3.93-5.28-7.01-5.9-5.6-1.12-10.89,2.07-14.54,6.08Z"/>
      <path class="cls-4" d="M1879.8,711.6c-3.29,3.88-4.43,9.14-4.77,14.21-.28,4.09-.1,8.26,1.15,12.17,1.25,3.9,3.65,7.53,7.11,9.72,3.47,2.18,8.05,2.74,11.73.93,1.85-.92,3.39-2.36,4.76-3.91,1.75-1.98,3.27-4.18,4.32-6.6,1.23-2.85,1.78-5.97,1.91-9.07.28-6.41-1.21-12.96-4.67-18.36-1.7-2.65-4.11-5.15-7.21-5.66-5.64-.93-10.82,2.44-14.33,6.58Z"/>
      <path class="cls-4" d="M1828.08,771.99c-4.24,4.28-6.07,10.39-6.95,16.35-.7,4.8-.88,9.75.24,14.48,1.12,4.73,3.62,9.24,7.51,12.14s9.26,3.98,13.77,2.18c2.28-.91,4.23-2.48,5.99-4.19,2.25-2.18,4.25-4.64,5.71-7.41,1.72-3.26,2.65-6.89,3.09-10.54.92-7.55-.23-15.42-3.83-22.12-1.77-3.29-4.38-6.46-8-7.35-6.57-1.62-13.01,1.89-17.53,6.45Z"/>
      <path class="cls-4" d="M1778.37,798.3c-4.4,4.96-6.03,11.78-6.62,18.39-.48,5.32-.36,10.76,1.15,15.88,1.52,5.12,4.54,9.92,9,12.86,4.46,2.94,10.42,3.8,15.26,1.54,2.44-1.14,4.49-2.98,6.32-4.97,2.33-2.53,4.38-5.35,5.82-8.48,1.68-3.68,2.48-7.72,2.75-11.76.55-8.34-1.21-16.92-5.57-24.05-2.14-3.5-5.2-6.82-9.24-7.58-7.32-1.37-14.17,2.88-18.86,8.17Z"/>
      <path class="cls-4" d="M1750.67,846.47c-2.67,2.74-3.8,6.64-4.33,10.43-.42,3.06-.51,6.2.23,9.2s2.35,5.85,4.84,7.67,5.91,2.48,8.76,1.31c1.44-.59,2.67-1.6,3.78-2.69,1.42-1.4,2.68-2.97,3.59-4.74,1.07-2.08,1.65-4.39,1.91-6.71.55-4.8-.23-9.8-2.55-14.03-1.14-2.08-2.82-4.08-5.12-4.63-4.18-.99-8.25,1.27-11.11,4.19Z"/>
      <path class="cls-4" d="M1700.45,857.11c-4.82,5.53-6.57,13.1-7.17,20.41-.48,5.89-.31,11.92,1.41,17.57,1.72,5.66,5.11,10.94,10.07,14.16,4.96,3.22,11.56,4.12,16.9,1.58,2.69-1.28,4.94-3.34,6.95-5.55,2.56-2.82,4.81-5.96,6.36-9.44,1.83-4.09,2.68-8.57,2.94-13.04.53-9.24-1.48-18.72-6.37-26.57-2.4-3.86-5.82-7.5-10.29-8.31-8.11-1.46-15.66,3.31-20.8,9.2Z"/>
      <path class="cls-4" d="M1672.28,824.01c-2.11,2.39-2.89,5.67-3.16,8.84-.22,2.56-.17,5.17.57,7.63s2.19,4.76,4.33,6.17,5.01,1.82,7.33.73c1.17-.55,2.15-1.44,3.03-2.39,1.12-1.22,2.1-2.58,2.79-4.08.81-1.77,1.19-3.71,1.31-5.65.26-4.01-.6-8.13-2.7-11.55-1.03-1.68-2.51-3.27-4.44-3.63-3.52-.65-6.8,1.39-9.05,3.94Z"/>
      <path class="cls-4" d="M1652.92,761.22c-4.19,4.42-5.9,10.65-6.65,16.7-.6,4.88-.66,9.88.57,14.64,1.24,4.75,3.87,9.26,7.88,12.1,4.01,2.84,9.46,3.82,13.98,1.89,2.28-.97,4.22-2.61,5.96-4.37,2.22-2.26,4.19-4.79,5.61-7.62,1.66-3.33,2.52-7.02,2.89-10.73.76-7.65-.59-15.59-4.38-22.28-1.86-3.28-4.58-6.43-8.26-7.25-6.68-1.49-13.11,2.21-17.59,6.93Z"/>
      <path class="cls-4" d="M1583.53,784.08c-4.91,4.96-7.02,12.04-8.02,18.95-.81,5.56-1,11.29.3,16.76,1.3,5.47,4.2,10.69,8.72,14.04,4.51,3.35,10.73,4.6,15.95,2.5,2.63-1.06,4.89-2.88,6.93-4.86,2.6-2.53,4.92-5.37,6.6-8.58,1.98-3.77,3.05-7.98,3.57-12.21,1.06-8.74-.29-17.86-4.47-25.6-2.05-3.8-5.08-7.47-9.28-8.5-7.61-1.86-15.06,2.21-20.29,7.5Z"/>
      <path class="cls-4" d="M1520.61,810.25c-3.54,4.03-4.83,9.56-5.28,14.9-.36,4.3-.25,8.71,1,12.84,1.25,4.14,3.71,8,7.33,10.37s8.44,3.03,12.35,1.18c1.97-.93,3.62-2.43,5.09-4.04,1.88-2.06,3.52-4.35,4.67-6.89,1.35-2.99,1.98-6.26,2.17-9.53.41-6.75-1.05-13.68-4.6-19.43-1.75-2.82-4.24-5.49-7.5-6.09-5.92-1.08-11.45,2.39-15.22,6.68Z"/>
      <path class="cls-4" d="M1456.18,713.71c-4,4.12-5.68,9.96-6.45,15.64-.62,4.58-.74,9.29.37,13.78,1.11,4.49,3.54,8.76,7.27,11.48,3.74,2.72,8.86,3.7,13.13,1.93,2.16-.89,4-2.4,5.66-4.05,2.12-2.1,4-4.46,5.36-7.11,1.6-3.12,2.45-6.58,2.84-10.07.8-7.19-.38-14.68-3.87-21.02-1.71-3.11-4.23-6.1-7.69-6.92-6.27-1.47-12.36,1.93-16.63,6.32Z"/>
      <path class="cls-4" d="M1414.06,806.49c-3.63,4.1-4.97,9.74-5.46,15.19-.39,4.39-.3,8.89.96,13.12,1.25,4.23,3.75,8.19,7.43,10.62,3.68,2.43,8.6,3.14,12.6,1.27,2.02-.94,3.71-2.47,5.22-4.1,1.93-2.09,3.62-4.42,4.8-7.01,1.39-3.04,2.05-6.38,2.26-9.72.45-6.89-1-13.97-4.61-19.86-1.77-2.89-4.3-5.63-7.63-6.25-6.04-1.13-11.7,2.38-15.57,6.75Z"/>
      <path class="cls-4" d="M1382.69,850.6c-2.65,2.76-3.76,6.66-4.26,10.45-.4,3.06-.47,6.2.29,9.19.75,2.99,2.39,5.83,4.89,7.64s5.92,2.44,8.77,1.25c1.44-.6,2.66-1.62,3.76-2.72,1.41-1.41,2.66-2.99,3.56-4.76,1.06-2.09,1.62-4.4,1.86-6.72.51-4.8-.3-9.79-2.64-14.01-1.15-2.07-2.84-4.06-5.15-4.59-4.19-.97-8.24,1.32-11.08,4.27Z"/>
      <path class="cls-4" d="M1342.13,877.23c-3.33,3.29-4.81,8.03-5.53,12.66-.59,3.73-.76,7.58.07,11.26.83,3.68,2.74,7.21,5.74,9.5,3.01,2.29,7.17,3.17,10.69,1.8,1.78-.69,3.31-1.89,4.69-3.21,1.77-1.68,3.34-3.57,4.5-5.71,1.36-2.52,2.11-5.33,2.49-8.17.78-5.86-.06-11.99-2.8-17.23-1.35-2.57-3.35-5.06-6.16-5.78-5.1-1.31-10.13,1.37-13.69,4.88Z"/>
      <path class="cls-4" d="M1299.07,893.85c-4.83,5.11-6.79,12.3-7.64,19.28-.69,5.63-.75,11.4.68,16.89,1.43,5.48,4.48,10.67,9.11,13.95,4.63,3.27,10.92,4.39,16.13,2.15,2.63-1.13,4.86-3.01,6.87-5.05,2.56-2.61,4.83-5.53,6.46-8.8,1.91-3.85,2.89-8.11,3.31-12.38.86-8.83-.71-17.99-5.09-25.7-2.15-3.79-5.29-7.41-9.54-8.35-7.71-1.7-15.12,2.57-20.28,8.02Z"/>
      <path class="cls-4" d="M1257.44,901.82c-5.49,5.38-7.94,13.14-9.16,20.73-.99,6.11-1.3,12.42.03,18.47,1.33,6.05,4.44,11.84,9.35,15.61,4.91,3.77,11.74,5.25,17.52,3.03,2.92-1.12,5.44-3.08,7.71-5.23,2.91-2.74,5.51-5.83,7.42-9.34,2.25-4.12,3.5-8.73,4.14-13.38,1.32-9.6-.01-19.67-4.47-28.28-2.19-4.23-5.46-8.32-10.07-9.52-8.35-2.19-16.62,2.17-22.48,7.9Z"/>
      <path class="cls-4" d="M1231.55,889.88c-3.16,3.36-4.44,8.07-4.98,12.65-.44,3.69-.47,7.48.48,11.07.95,3.59,2.95,6.99,5.99,9.13,3.04,2.14,7.17,2.86,10.58,1.39,1.72-.74,3.18-1.98,4.5-3.32,1.68-1.71,3.16-3.63,4.22-5.78,1.25-2.53,1.88-5.32,2.15-8.13.55-5.79-.49-11.79-3.38-16.84-1.42-2.48-3.48-4.85-6.27-5.46-5.06-1.1-9.91,1.71-13.28,5.29Z"/>
      <path class="cls-4" d="M1195.37,838.72c-5.1,5.18-7.29,12.57-8.31,19.77-.83,5.8-1.02,11.78.35,17.48,1.37,5.7,4.41,11.13,9.12,14.62,4.71,3.48,11.2,4.77,16.63,2.57,2.74-1.11,5.09-3.01,7.21-5.08,2.7-2.64,5.11-5.61,6.86-8.96,2.06-3.94,3.16-8.32,3.69-12.74,1.08-9.11-.35-18.61-4.72-26.68-2.15-3.96-5.31-7.77-9.69-8.84-7.94-1.93-15.69,2.34-21.14,7.87Z"/>
      <path class="cls-4" d="M1143.03,811.09c-3.62,4.07-4.98,9.67-5.48,15.09-.4,4.37-.32,8.84.91,13.05,1.24,4.21,3.71,8.16,7.37,10.59,3.66,2.43,8.55,3.15,12.53,1.3,2.01-.93,3.7-2.44,5.2-4.07,1.92-2.08,3.61-4.39,4.8-6.96,1.39-3.02,2.06-6.34,2.28-9.66.47-6.85-.96-13.9-4.53-19.77-1.75-2.88-4.26-5.61-7.58-6.24-6.01-1.14-11.65,2.34-15.51,6.67Z"/>
      <path class="cls-4" d="M1083.04,815.45c-2.67,2.81-3.76,6.77-4.24,10.62-.38,3.1-.43,6.29.36,9.31.79,3.03,2.46,5.89,5.01,7.7s6.02,2.43,8.89,1.2c1.45-.62,2.69-1.66,3.79-2.78,1.42-1.43,2.67-3.04,3.57-4.85,1.06-2.12,1.6-4.47,1.84-6.83.49-4.87-.37-9.92-2.78-14.18-1.18-2.09-2.91-4.09-5.25-4.62-4.25-.95-8.34,1.4-11.19,4.4Z"/>
      <path class="cls-4" d="M1034.96,883.16c-3.58,3.58-5.14,8.71-5.89,13.72-.61,4.03-.77,8.19.15,12.17.92,3.97,3.01,7.77,6.27,10.22,3.26,2.45,7.77,3.38,11.56,1.88,1.92-.76,3.56-2.07,5.05-3.5,1.9-1.82,3.59-3.88,4.83-6.2,1.45-2.73,2.25-5.78,2.64-8.84.8-6.34-.14-12.96-3.14-18.6-1.47-2.77-3.66-5.44-6.7-6.2-5.52-1.38-10.94,1.54-14.76,5.36Z"/>
      <path class="cls-4" d="M982.27,828.04c-2.22,2.63-2.98,6.2-3.2,9.63-.18,2.77-.05,5.59.8,8.23s2.49,5.09,4.84,6.56,5.46,1.84,7.94.6c1.25-.62,2.29-1.61,3.22-2.66,1.18-1.34,2.21-2.84,2.91-4.48.83-1.93,1.19-4.04,1.27-6.14.18-4.34-.85-8.77-3.2-12.42-1.16-1.79-2.79-3.47-4.9-3.81-3.82-.62-7.32,1.68-9.69,4.49Z"/>
      <path class="cls-4" d="M929.86,810.68c-2.86,3.18-3.94,7.58-4.35,11.83-.33,3.43-.28,6.94.67,10.25.96,3.31,2.89,6.42,5.75,8.34s6.7,2.5,9.83,1.06c1.58-.73,2.91-1.91,4.1-3.18,1.52-1.62,2.85-3.43,3.79-5.45,1.1-2.37,1.63-4.97,1.82-7.58.39-5.38-.71-10.92-3.49-15.54-1.37-2.27-3.33-4.42-5.93-4.93-4.71-.92-9.15,1.79-12.2,5.19Z"/>
      <path class="cls-4" d="M868.25,777.91c-4.83,5.15-6.78,12.37-7.61,19.38-.67,5.65-.71,11.45.74,16.95,1.46,5.5,4.53,10.7,9.19,13.97,4.65,3.27,10.98,4.37,16.2,2.11,2.64-1.14,4.87-3.04,6.88-5.1,2.56-2.62,4.83-5.57,6.45-8.86,1.91-3.87,2.88-8.15,3.28-12.44.84-8.87-.77-18.05-5.2-25.78-2.17-3.79-5.33-7.42-9.61-8.35-7.75-1.68-15.17,2.63-20.33,8.12Z"/>
      <path class="cls-4" d="M818.09,806.68c-3.52,4.09-4.76,9.67-5.16,15.05-.32,4.34-.16,8.76,1.13,12.91,1.3,4.15,3.82,8.02,7.48,10.36s8.53,2.97,12.44,1.07c1.97-.96,3.62-2.48,5.08-4.12,1.87-2.09,3.5-4.41,4.63-6.98,1.33-3.02,1.92-6.32,2.09-9.61.34-6.8-1.19-13.76-4.83-19.51-1.79-2.82-4.32-5.49-7.61-6.05-5.97-1.03-11.49,2.52-15.25,6.88Z"/>
      <path class="cls-4" d="M758.49,786.66c-3.52,3.7-4.96,8.9-5.59,13.96-.51,4.08-.57,8.27.46,12.25,1.03,3.98,3.22,7.75,6.57,10.14,3.35,2.39,7.91,3.21,11.69,1.6,1.91-.81,3.53-2.17,4.99-3.65,1.86-1.88,3.52-4,4.7-6.37,1.4-2.79,2.12-5.87,2.43-8.97.65-6.4-.47-13.05-3.63-18.65-1.55-2.75-3.82-5.39-6.9-6.08-5.59-1.25-10.98,1.83-14.73,5.77Z"/>
      <path class="cls-4" d="M746.74,932.75c-4.48,4.96-6.18,11.82-6.84,18.47-.53,5.36-.47,10.84,1.01,16.02,1.48,5.17,4.48,10.04,8.95,13.04,4.46,3.01,10.46,3.93,15.36,1.69,2.47-1.13,4.55-2.97,6.41-4.95,2.37-2.53,4.47-5.35,5.94-8.5,1.73-3.69,2.57-7.76,2.88-11.83.63-8.4-1.06-17.06-5.39-24.29-2.13-3.55-5.18-6.92-9.24-7.72-7.36-1.45-14.3,2.77-19.08,8.06Z"/>
      <path class="cls-4" d="M673.74,885.4c-4.91,5.27-6.87,12.63-7.69,19.79-.66,5.76-.69,11.68.82,17.28,1.51,5.6,4.66,10.89,9.42,14.21,4.76,3.32,11.21,4.41,16.52,2.09,2.68-1.17,4.96-3.12,7-5.22,2.6-2.69,4.91-5.69,6.55-9.05,1.93-3.95,2.91-8.32,3.3-12.7.82-9.04-.85-18.41-5.39-26.27-2.23-3.86-5.47-7.55-9.83-8.48-7.91-1.69-15.46,2.74-20.7,8.35Z"/>
      <path class="cls-4" d="M625.99,914.45c-2.28,2.33-3.25,5.64-3.7,8.86-.36,2.6-.44,5.27.18,7.82s1.98,4.98,4.1,6.53,5.02,2.12,7.45,1.13c1.23-.5,2.28-1.35,3.22-2.28,1.21-1.18,2.28-2.52,3.06-4.02.92-1.77,1.41-3.73,1.64-5.71.47-4.08-.18-8.33-2.14-11.94-.96-1.77-2.39-3.47-4.35-3.94-3.56-.85-7.02,1.06-9.45,3.54Z"/>
      <path class="cls-4" d="M540.93,955.51c-3.58,4.05-4.91,9.62-5.39,15-.39,4.34-.29,8.78.95,12.96,1.24,4.18,3.71,8.09,7.35,10.49s8.5,3.1,12.45,1.25c1.99-.93,3.66-2.44,5.15-4.05,1.9-2.07,3.57-4.37,4.74-6.92,1.37-3,2.02-6.3,2.23-9.6.44-6.81-.99-13.8-4.56-19.62-1.75-2.86-4.25-5.56-7.54-6.18-5.97-1.12-11.56,2.35-15.38,6.67Z"/>
      <path class="cls-4" d="M512.24,958.17c-3.88,4.62-5.21,10.87-5.58,16.89-.31,4.85-.07,9.81,1.43,14.43,1.5,4.62,4.37,8.92,8.5,11.49,4.13,2.57,9.57,3.21,13.92,1.04,2.2-1.1,4.02-2.82,5.63-4.67,2.06-2.36,3.86-4.98,5.09-7.86,1.44-3.39,2.07-7.09,2.22-10.77.3-7.61-1.5-15.37-5.65-21.76-2.03-3.14-4.9-6.08-8.59-6.68-6.69-1.07-12.83,2.96-16.97,7.89Z"/>
      <path class="cls-4" d="M501.46,897.55c-4.75,5.19-6.59,12.4-7.33,19.4-.59,5.64-.57,11.41.96,16.87,1.52,5.46,4.65,10.6,9.33,13.8,4.68,3.2,10.99,4.21,16.16,1.89,2.61-1.17,4.81-3.09,6.79-5.16,2.52-2.65,4.74-5.61,6.31-8.91,1.85-3.88,2.76-8.15,3.11-12.44.72-8.84-1-17.97-5.51-25.61-2.21-3.75-5.41-7.32-9.68-8.19-7.74-1.58-15.08,2.82-20.15,8.35Z"/>
      <path class="cls-4" d="M465.98,869.08c-2.66,2.68-3.82,6.5-4.37,10.24-.45,3.01-.56,6.11.13,9.07.69,2.96,2.25,5.79,4.69,7.61s5.8,2.51,8.63,1.38c1.43-.57,2.65-1.55,3.76-2.62,1.41-1.36,2.67-2.9,3.59-4.63,1.08-2.04,1.67-4.31,1.95-6.6.59-4.73-.13-9.66-2.37-13.86-1.1-2.06-2.74-4.05-5-4.62-4.12-1.02-8.15,1.17-11,4.02Z"/>
      <path class="cls-4" d="M391.96,876.05c-3.04,3.59-4.1,8.46-4.41,13.15-.26,3.78-.09,7.64,1.06,11.25,1.16,3.61,3.38,6.97,6.58,8.99s7.45,2.54,10.85.86c1.72-.85,3.14-2.19,4.41-3.62,1.62-1.83,3.03-3.87,4-6.11,1.14-2.64,1.64-5.52,1.77-8.39.26-5.93-1.12-11.99-4.32-16.98-1.57-2.45-3.8-4.76-6.67-5.23-5.21-.86-10.01,2.26-13.25,6.09Z"/>
      <path class="cls-4" d="M371.54,780.18c-3.67,3.75-5.22,9.09-5.94,14.29-.58,4.19-.7,8.5.3,12.61,1,4.11,3.21,8.02,6.62,10.52,3.41,2.5,8.09,3.41,12.01,1.81,1.98-.81,3.67-2.19,5.19-3.68,1.94-1.91,3.67-4.06,4.93-6.49,1.47-2.85,2.26-6.01,2.62-9.2.75-6.58-.3-13.43-3.48-19.23-1.56-2.85-3.85-5.59-7.02-6.35-5.73-1.37-11.31,1.73-15.23,5.73Z"/>
      <path class="cls-4" d="M274.19,831.91c-2.97,3.42-4.03,8.09-4.39,12.6-.29,3.64-.17,7.35.9,10.84,1.07,3.49,3.17,6.74,6.23,8.72s7.14,2.52,10.43.95c1.66-.8,3.04-2.07,4.28-3.43,1.58-1.74,2.96-3.69,3.91-5.83,1.12-2.53,1.64-5.29,1.79-8.05.32-5.7-.94-11.54-3.97-16.38-1.49-2.38-3.6-4.62-6.36-5.11-5.01-.89-9.65,2.06-12.82,5.71Z"/>
      <path class="cls-4" d="M220.67,862.89c-2.86,3.31-3.88,7.82-4.22,12.18-.27,3.51-.15,7.1.89,10.47,1.04,3.37,3.08,6.51,6.04,8.41,2.96,1.91,6.9,2.42,10.08.89,1.6-.77,2.94-2.01,4.13-3.33,1.52-1.69,2.85-3.57,3.77-5.64,1.08-2.44,1.57-5.11,1.72-7.78.29-5.51-.93-11.15-3.87-15.82-1.44-2.29-3.49-4.46-6.16-4.92-4.84-.85-9.32,2.01-12.37,5.54Z"/>
      <path class="cls-4" d="M203.1,930.42c-2.76,3.23-3.72,7.63-4.02,11.87-.24,3.42-.1,6.9.93,10.17,1.03,3.26,3.03,6.3,5.92,8.14s6.72,2.31,9.8.8c1.55-.76,2.84-1.97,3.99-3.26,1.47-1.65,2.75-3.48,3.63-5.51,1.04-2.38,1.5-4.98,1.62-7.57.25-5.35-.98-10.83-3.86-15.35-1.41-2.22-3.42-4.31-6.01-4.75-4.71-.79-9.05,2.02-11.99,5.46Z"/>
      <path class="cls-4" d="M118.69,892.56c-3.49,3.66-4.92,8.82-5.55,13.84-.51,4.04-.57,8.2.44,12.15,1.02,3.95,3.19,7.69,6.51,10.06,3.32,2.37,7.84,3.19,11.59,1.6,1.89-.8,3.51-2.15,4.95-3.61,1.85-1.87,3.49-3.96,4.67-6.31,1.39-2.76,2.11-5.82,2.42-8.9.65-6.35-.46-12.94-3.59-18.5-1.54-2.73-3.78-5.34-6.84-6.03-5.54-1.25-10.88,1.8-14.61,5.71Z"/>
    </g>
    <g>
      <path class="cls-1" d="M2235.21,692.86c-3.6,3.61-5.16,8.78-5.92,13.83-.61,4.07-.77,8.25.17,12.26.93,4,3.04,7.83,6.33,10.29,3.29,2.46,7.83,3.39,11.65,1.87,1.93-.77,3.58-2.09,5.08-3.53,1.91-1.84,3.61-3.92,4.85-6.26,1.46-2.75,2.26-5.82,2.64-8.92.8-6.39-.16-13.06-3.19-18.73-1.49-2.79-3.69-5.48-6.76-6.24-5.56-1.38-11.02,1.57-14.86,5.42Z"/>
      <path class="cls-1" d="M2170.57,638.97c-3.73,4.2-5.11,9.98-5.62,15.56-.41,4.5-.32,9.11.97,13.45,1.28,4.34,3.84,8.4,7.61,10.9,3.77,2.5,8.82,3.23,12.92,1.32,2.07-.96,3.8-2.52,5.35-4.2,1.98-2.14,3.72-4.53,4.93-7.18,1.43-3.12,2.11-6.54,2.33-9.96.47-7.06-1.01-14.33-4.7-20.37-1.81-2.97-4.4-5.78-7.82-6.42-6.19-1.17-12,2.43-15.97,6.9Z"/>
      <path class="cls-1" d="M2151.86,725.16c-3.49,3.71-4.9,8.93-5.5,13.99-.49,4.08-.52,8.27.53,12.24,1.05,3.97,3.27,7.73,6.63,10.09,3.36,2.36,7.92,3.16,11.69,1.53,1.9-.82,3.52-2.19,4.97-3.68,1.85-1.89,3.49-4.02,4.66-6.39,1.38-2.79,2.08-5.88,2.38-8.98.61-6.4-.55-13.04-3.74-18.62-1.57-2.74-3.85-5.36-6.93-6.03-5.59-1.22-10.96,1.89-14.68,5.86Z"/>
      <path class="cls-1" d="M2108.21,612.39c-3.62,4.24-4.88,10.01-5.27,15.57-.31,4.48-.13,9.06,1.23,13.34,1.36,4.28,3.98,8.27,7.77,10.68,3.8,2.4,8.82,3.03,12.86,1.05,2.04-1,3.73-2.58,5.23-4.28,1.92-2.17,3.6-4.57,4.76-7.23,1.36-3.12,1.96-6.54,2.12-9.94.33-7.03-1.29-14.21-5.07-20.14-1.86-2.91-4.49-5.65-7.89-6.22-6.18-1.04-11.87,2.65-15.73,7.17Z"/>
      <path class="cls-1" d="M2072.1,670.87c-3.56,3.58-5.09,8.7-5.83,13.69-.59,4.02-.74,8.17.19,12.12.93,3.96,3.02,7.74,6.28,10.17,3.26,2.43,7.75,3.34,11.53,1.83,1.91-.76,3.54-2.07,5.02-3.5,1.88-1.82,3.56-3.88,4.79-6.2,1.44-2.73,2.22-5.76,2.6-8.82.78-6.32-.19-12.91-3.19-18.52-1.48-2.75-3.66-5.41-6.69-6.16-5.5-1.36-10.89,1.57-14.69,5.39Z"/>
      <path class="cls-1" d="M2039.18,645.68c-3.06,2.98-4.44,7.3-5.13,11.51-.56,3.4-.74,6.91-.01,10.27.73,3.37,2.45,6.59,5.18,8.7s6.52,2.94,9.74,1.71c1.62-.62,3.03-1.71,4.3-2.9,1.62-1.52,3.07-3.24,4.14-5.18,1.26-2.29,1.96-4.85,2.32-7.44.75-5.34.02-10.94-2.44-15.73-1.21-2.35-3.02-4.63-5.58-5.31-4.64-1.23-9.25,1.18-12.52,4.36Z"/>
      <path class="cls-1" d="M1994.04,648.07c-3.61,4.08-4.94,9.69-5.42,15.11-.38,4.37-.29,8.84.97,13.05,1.25,4.21,3.74,8.14,7.41,10.56,3.66,2.41,8.56,3.11,12.53,1.25,2.01-.94,3.68-2.46,5.18-4.09,1.91-2.08,3.59-4.4,4.77-6.98,1.38-3.03,2.03-6.35,2.24-9.67.44-6.85-1.01-13.9-4.6-19.75-1.76-2.87-4.28-5.6-7.6-6.21-6.01-1.12-11.64,2.38-15.48,6.73Z"/>
      <path class="cls-1" d="M1951.5,653.4c-3.56,3.99-4.9,9.49-5.39,14.82-.4,4.29-.32,8.68.88,12.82,1.21,4.14,3.63,8.02,7.22,10.4,3.59,2.39,8.39,3.1,12.3,1.29,1.97-.91,3.63-2.39,5.11-3.99,1.89-2.04,3.55-4.31,4.72-6.83,1.37-2.97,2.02-6.22,2.25-9.48.47-6.73-.93-13.65-4.42-19.42-1.72-2.83-4.18-5.52-7.43-6.14-5.9-1.13-11.44,2.28-15.24,6.53Z"/>
      <path class="cls-1" d="M1908.93,660.74c-4,4.19-5.64,10.1-6.37,15.84-.59,4.63-.66,9.38.5,13.9,1.16,4.52,3.65,8.8,7.44,11.52,3.8,2.71,8.97,3.65,13.27,1.83,2.17-.92,4.02-2.46,5.67-4.13,2.12-2.14,4-4.53,5.35-7.22,1.59-3.16,2.41-6.66,2.77-10.18.74-7.27-.51-14.81-4.09-21.18-1.76-3.13-4.33-6.12-7.82-6.91-6.34-1.43-12.46,2.06-16.72,6.53Z"/>
      <path class="cls-1" d="M1869.06,669.99c-2.49,2.78-3.42,6.62-3.77,10.34-.28,2.99-.23,6.06.61,8.95.84,2.89,2.53,5.6,5.03,7.26,2.5,1.67,5.86,2.17,8.59.9,1.38-.64,2.54-1.67,3.57-2.78,1.32-1.42,2.48-3,3.29-4.76.96-2.07,1.42-4.34,1.57-6.62.33-4.7-.64-9.53-3.08-13.56-1.2-1.98-2.91-3.85-5.18-4.29-4.12-.79-7.98,1.59-10.64,4.55Z"/>
      <path class="cls-1" d="M1808.97,636.86c-3.35,3.54-4.71,8.52-5.31,13.36-.48,3.9-.52,7.9.47,11.7.99,3.8,3.1,7.4,6.31,9.67,3.2,2.27,7.57,3.04,11.18,1.5,1.82-.78,3.37-2.09,4.76-3.5,1.78-1.81,3.35-3.83,4.48-6.1,1.33-2.67,2.01-5.62,2.3-8.58.6-6.12-.48-12.47-3.52-17.81-1.49-2.62-3.66-5.14-6.61-5.79-5.35-1.18-10.48,1.78-14.06,5.55Z"/>
      <path class="cls-1" d="M1761.1,629.43c-3.68,4.38-4.93,10.3-5.29,16.01-.29,4.6-.07,9.29,1.35,13.68,1.42,4.38,4.14,8.45,8.05,10.89s9.07,3.04,13.19.99c2.08-1.04,3.81-2.68,5.34-4.43,1.96-2.24,3.66-4.72,4.83-7.45,1.37-3.21,1.97-6.72,2.1-10.21.28-7.21-1.42-14.57-5.35-20.62-1.93-2.97-4.64-5.77-8.14-6.33-6.34-1.02-12.16,2.8-16.08,7.47Z"/>
      <path class="cls-1" d="M1776.4,765.48c-1.75,1.91-2.42,4.56-2.7,7.13-.22,2.07-.21,4.2.35,6.2s1.71,3.9,3.43,5.07,4.04,1.55,5.94.7c.96-.43,1.77-1.14,2.49-1.9.93-.97,1.74-2.06,2.32-3.27.68-1.43,1.02-3,1.14-4.57.27-3.25-.37-6.61-2.02-9.42-.81-1.38-1.99-2.69-3.56-3.01-2.85-.58-5.54,1.03-7.41,3.07Z"/>
      <path class="cls-1" d="M1729.03,744.72c-1.63,1.92-2.2,4.53-2.37,7.04-.14,2.02-.05,4.09.56,6.03s1.8,3.73,3.52,4.82,3.99,1.36,5.81.47c.92-.45,1.68-1.17,2.36-1.94.87-.98,1.62-2.07,2.14-3.27.61-1.41.88-2.95.95-4.49.14-3.17-.59-6.42-2.31-9.09-.84-1.31-2.03-2.55-3.57-2.81-2.79-.46-5.36,1.21-7.1,3.25Z"/>
      <path class="cls-1" d="M1705.07,662.61c-2.76,2.96-3.86,7.1-4.32,11.11-.37,3.24-.39,6.56.46,9.71.85,3.15,2.62,6.12,5.29,7.99,2.67,1.87,6.3,2.48,9.28,1.18,1.51-.66,2.79-1.75,3.93-2.93,1.46-1.51,2.76-3.2,3.68-5.09,1.08-2.22,1.63-4.67,1.86-7.13.46-5.08-.47-10.34-3.02-14.76-1.25-2.17-3.07-4.24-5.52-4.77-4.44-.95-8.69,1.54-11.63,4.69Z"/>
      <path class="cls-1" d="M1656.72,710.65c-3.18,3.48-4.4,8.32-4.89,13.01-.39,3.78-.36,7.65.66,11.31,1.03,3.66,3.13,7.1,6.27,9.23s7.37,2.81,10.83,1.25c1.75-.79,3.22-2.08,4.54-3.47,1.68-1.78,3.17-3.76,4.22-5.98,1.23-2.6,1.84-5.47,2.07-8.34.47-5.93-.69-12.04-3.73-17.16-1.49-2.51-3.63-4.9-6.5-5.48-5.19-1.05-10.1,1.91-13.49,5.62Z"/>
      <path class="cls-1" d="M1648.44,652.52c-2.64,2.88-3.66,6.89-4.07,10.78-.33,3.13-.31,6.34.53,9.38.85,3.03,2.58,5.89,5.18,7.67s6.11,2.34,8.98,1.05c1.45-.65,2.67-1.72,3.77-2.87,1.4-1.47,2.63-3.12,3.51-4.95,1.03-2.16,1.54-4.53,1.73-6.91.4-4.91-.55-9.99-3.06-14.23-1.23-2.08-3.01-4.07-5.38-4.55-4.3-.88-8.38,1.56-11.19,4.64Z"/>
      <path class="cls-1" d="M1600.99,660.9c-2,1.99-2.86,4.85-3.29,7.64-.34,2.25-.43,4.56.08,6.78s1.67,4.33,3.49,5.7,4.33,1.88,6.44,1.05c1.07-.42,1.98-1.15,2.81-1.95,1.06-1.02,2-2.16,2.69-3.46.81-1.52,1.25-3.22,1.47-4.93.45-3.53-.08-7.22-1.75-10.36-.82-1.54-2.04-3.03-3.73-3.46-3.07-.77-6.09.86-8.22,2.99Z"/>
      <path class="cls-1" d="M1555.57,638.72c-2.76,2.86-3.92,6.91-4.44,10.85-.42,3.18-.5,6.44.28,9.55.78,3.11,2.46,6.06,5.06,7.94s6.15,2.55,9.1,1.32c1.49-.62,2.77-1.67,3.91-2.81,1.46-1.46,2.77-3.1,3.71-4.93,1.1-2.16,1.69-4.57,1.95-6.98.54-4.99-.29-10.17-2.72-14.56-1.19-2.15-2.94-4.22-5.34-4.78-4.35-1.01-8.57,1.36-11.51,4.41Z"/>
      <path class="cls-1" d="M1504.6,705.29c-2.47,2.57-3.5,6.2-3.97,9.74-.37,2.85-.43,5.78.27,8.57s2.22,5.43,4.55,7.11,5.52,2.27,8.17,1.17c1.34-.56,2.48-1.51,3.51-2.53,1.31-1.31,2.48-2.78,3.31-4.43.99-1.94,1.51-4.1,1.74-6.26.48-4.47-.28-9.12-2.46-13.05-1.07-1.93-2.65-3.78-4.8-4.28-3.9-.9-7.68,1.23-10.32,3.97Z"/>
      <path class="cls-1" d="M1463.73,677.69c-1.85,2.12-2.52,5.02-2.74,7.82-.18,2.26-.12,4.56.54,6.73s1.96,4.19,3.86,5.42,4.43,1.58,6.47.6c1.03-.49,1.89-1.28,2.66-2.13.98-1.08,1.84-2.28,2.44-3.62.7-1.57,1.03-3.28,1.12-5,.2-3.54-.57-7.17-2.44-10.18-.92-1.48-2.23-2.87-3.94-3.18-3.11-.56-6,1.27-7.97,3.53Z"/>
      <path class="cls-1" d="M1406.49,666.6c-1.89,2.15-2.58,5.1-2.83,7.95-.2,2.3-.14,4.65.52,6.85s1.97,4.27,3.9,5.54,4.5,1.63,6.59.64c1.05-.5,1.93-1.29,2.72-2.15,1-1.1,1.88-2.32,2.5-3.67.72-1.59,1.06-3.34,1.17-5.08.22-3.6-.55-7.3-2.44-10.37-.93-1.51-2.26-2.94-4-3.26-3.16-.58-6.11,1.26-8.13,3.55Z"/>
      <path class="cls-1" d="M1350.47,668.7c-2.63,2.71-3.74,6.55-4.25,10.3-.41,3.02-.49,6.12.24,9.08.73,2.96,2.33,5.77,4.79,7.56s5.83,2.44,8.65,1.27c1.42-.59,2.63-1.58,3.73-2.66,1.39-1.38,2.64-2.93,3.53-4.68,1.05-2.05,1.61-4.33,1.87-6.63.53-4.74-.25-9.67-2.55-13.84-1.13-2.05-2.79-4.02-5.06-4.55-4.13-.97-8.14,1.27-10.95,4.16Z"/>
      <path class="cls-1" d="M1366.99,751.23c-2.07,2.43-2.79,5.73-3.01,8.91-.18,2.56-.07,5.18.71,7.63s2.28,4.73,4.45,6.1,5.05,1.73,7.35.6c1.16-.57,2.13-1.48,2.99-2.45,1.1-1.24,2.06-2.62,2.72-4.14.77-1.79,1.12-3.74,1.21-5.68.18-4.02-.74-8.12-2.91-11.51-1.06-1.66-2.57-3.23-4.52-3.56-3.53-.59-6.79,1.52-8.99,4.11Z"/>
      <path class="cls-1" d="M1354.83,796.63c-3.67,3.56-5.33,8.72-6.16,13.77-.68,4.07-.91,8.27-.04,12.3.87,4.03,2.92,7.9,6.18,10.43s7.8,3.53,11.66,2.07c1.95-.74,3.63-2.04,5.15-3.46,1.94-1.81,3.69-3.87,4.97-6.19,1.51-2.74,2.36-5.8,2.8-8.9.91-6.39.05-13.1-2.89-18.84-1.45-2.82-3.61-5.55-6.67-6.37-5.55-1.48-11.07,1.39-14.99,5.19Z"/>
      <path class="cls-1" d="M1307.96,810.82c-1.86,2.2-2.5,5.18-2.69,8.05-.15,2.31-.05,4.68.66,6.89s2.07,4.26,4.03,5.5,4.56,1.55,6.64.52c1.05-.52,1.92-1.34,2.69-2.22.99-1.12,1.85-2.37,2.44-3.74.7-1.62,1-3.38,1.08-5.14.16-3.63-.69-7.34-2.65-10.39-.96-1.5-2.33-2.91-4.09-3.2-3.19-.52-6.12,1.39-8.11,3.73Z"/>
      <path class="cls-1" d="M1290.38,721.26c-2.09,2.2-2.94,5.3-3.31,8.31-.3,2.43-.33,4.92.28,7.28s1.93,4.61,3.92,6.02,4.71,1.9,6.95.94c1.13-.48,2.1-1.3,2.97-2.18,1.11-1.12,2.09-2.38,2.79-3.79.83-1.66,1.25-3.49,1.44-5.34.38-3.81-.29-7.76-2.18-11.09-.93-1.63-2.28-3.2-4.11-3.61-3.33-.74-6.52,1.1-8.75,3.45Z"/>
      <path class="cls-1" d="M1231.99,779.63c-1.95,2-2.77,4.83-3.14,7.6-.3,2.23-.36,4.52.17,6.7s1.71,4.26,3.53,5.58,4.3,1.8,6.38.95c1.05-.43,1.95-1.17,2.75-1.96,1.03-1.02,1.95-2.16,2.61-3.45.78-1.51,1.2-3.2,1.39-4.89.39-3.49-.17-7.13-1.87-10.22-.83-1.51-2.05-2.97-3.73-3.37-3.05-.72-6.01.93-8.08,3.06Z"/>
      <path class="cls-1" d="M1196.53,745.8c-3.7,3.97-5.18,9.52-5.79,14.91-.5,4.34-.52,8.8.62,13.02,1.14,4.22,3.51,8.21,7.1,10.71,3.59,2.5,8.45,3.33,12.45,1.58,2.02-.88,3.74-2.35,5.27-3.93,1.96-2.02,3.7-4.29,4.93-6.82,1.45-2.98,2.19-6.27,2.49-9.57.62-6.82-.64-13.87-4.06-19.8-1.68-2.91-4.12-5.69-7.4-6.39-5.96-1.27-11.65,2.06-15.6,6.3Z"/>
      <path class="cls-1" d="M1166.5,719.77c-3.27,3.65-4.5,8.7-4.96,13.58-.37,3.94-.31,7.96.8,11.76,1.1,3.8,3.33,7.36,6.61,9.55,3.29,2.19,7.7,2.85,11.29,1.19,1.81-.84,3.33-2.19,4.69-3.65,1.74-1.87,3.26-3.95,4.33-6.26,1.26-2.72,1.86-5.71,2.07-8.7.43-6.17-.83-12.53-4.04-17.82-1.57-2.6-3.83-5.07-6.81-5.64-5.41-1.04-10.5,2.08-13.98,5.98Z"/>
      <path class="cls-1" d="M1128.51,652.89c-2.06,2.32-2.83,5.52-3.11,8.61-.23,2.49-.18,5.04.53,7.44s2.12,4.65,4.21,6.03,4.88,1.79,7.15.73c1.15-.53,2.11-1.39,2.96-2.32,1.1-1.18,2.06-2.5,2.73-3.97.79-1.72,1.17-3.62,1.3-5.51.26-3.91-.55-7.93-2.59-11.27-1-1.64-2.43-3.2-4.32-3.56-3.43-.65-6.64,1.34-8.84,3.81Z"/>
      <path class="cls-1" d="M1081.08,741.98c-3.94,4.03-5.62,9.77-6.39,15.36-.63,4.5-.76,9.13.32,13.55,1.08,4.42,3.45,8.62,7.11,11.31,3.67,2.69,8.7,3.67,12.91,1.95,2.12-.87,3.94-2.35,5.58-3.96,2.09-2.05,3.95-4.37,5.3-6.97,1.59-3.06,2.43-6.46,2.83-9.89.81-7.07-.32-14.43-3.73-20.68-1.67-3.07-4.14-6.02-7.54-6.83-6.16-1.47-12.16,1.86-16.37,6.16Z"/>
      <path class="cls-1" d="M1044.81,720.83c-2.24,2.21-3.23,5.39-3.71,8.5-.39,2.5-.51,5.08.04,7.56s1.84,4.84,3.85,6.37,4.81,2.13,7.17,1.21c1.19-.46,2.22-1.27,3.15-2.15,1.18-1.12,2.24-2.4,3.02-3.83.91-1.69,1.42-3.58,1.67-5.48.52-3.93-.04-8.05-1.88-11.56-.9-1.72-2.25-3.39-4.13-3.88-3.42-.88-6.8.92-9.18,3.27Z"/>
      <path class="cls-1" d="M1005.66,729.72c-2.03,2.13-2.86,5.13-3.23,8.04-.3,2.35-.34,4.77.25,7.06s1.85,4.47,3.78,5.85,4.56,1.86,6.74.93c1.1-.47,2.04-1.25,2.88-2.1,1.08-1.08,2.03-2.3,2.72-3.67.81-1.61,1.23-3.38,1.41-5.17.38-3.69-.26-7.52-2.08-10.75-.89-1.59-2.2-3.11-3.97-3.51-3.22-.73-6.33,1.05-8.49,3.31Z"/>
      <path class="cls-1" d="M961.06,730.69c-4.31,4.37-6.16,10.6-7.04,16.68-.7,4.9-.87,9.94.28,14.75,1.15,4.81,3.71,9.4,7.68,12.34,3.97,2.94,9.45,4.03,14.03,2.18,2.32-.93,4.3-2.54,6.09-4.28,2.28-2.23,4.32-4.73,5.8-7.56,1.74-3.32,2.68-7.02,3.13-10.74.92-7.69-.28-15.71-3.96-22.52-1.81-3.34-4.48-6.57-8.17-7.47-6.7-1.63-13.25,1.96-17.85,6.62Z"/>
      <path class="cls-1" d="M927.93,761.18c-3.15,3.16-4.52,7.68-5.18,12.1-.53,3.56-.67,7.22.14,10.73.82,3.5,2.66,6.85,5.54,9.01s6.85,2.97,10.2,1.64c1.69-.67,3.14-1.83,4.45-3.09,1.67-1.61,3.16-3.42,4.25-5.47,1.28-2.41,1.98-5.09,2.32-7.8.7-5.59-.14-11.42-2.79-16.39-1.3-2.44-3.23-4.79-5.91-5.46-4.86-1.21-9.64,1.37-13,4.74Z"/>
      <path class="cls-1" d="M873.43,672.79c-4.11,4.09-5.92,9.95-6.8,15.68-.71,4.62-.91,9.38.13,13.93,1.04,4.55,3.41,8.91,7.14,11.73s8.88,3.9,13.23,2.19c2.2-.86,4.08-2.36,5.79-3.99,2.18-2.08,4.12-4.43,5.55-7.08,1.67-3.12,2.59-6.6,3.05-10.12.94-7.25-.12-14.84-3.53-21.3-1.68-3.17-4.17-6.24-7.64-7.13-6.31-1.6-12.53,1.73-16.91,6.08Z"/>
      <path class="cls-1" d="M837.03,709.55c-2.48,2.85-3.37,6.76-3.67,10.53-.24,3.04-.15,6.14.75,9.06.89,2.91,2.65,5.63,5.21,7.29s5.97,2.11,8.71.79c1.39-.66,2.54-1.73,3.58-2.87,1.32-1.46,2.47-3.08,3.27-4.87.94-2.11,1.37-4.42,1.5-6.73.26-4.76-.78-9.65-3.31-13.69-1.24-1.99-3.01-3.86-5.31-4.27-4.18-.74-8.07,1.72-10.71,4.77Z"/>
      <path class="cls-1" d="M793.9,701.88c-2.84,3.29-3.85,7.79-4.18,12.12-.26,3.49-.14,7.07.9,10.41,1.04,3.35,3.07,6.47,6.02,8.36s6.87,2.4,10.02.88c1.59-.77,2.92-2,4.1-3.31,1.51-1.68,2.83-3.55,3.74-5.62,1.07-2.43,1.56-5.09,1.7-7.74.28-5.48-.94-11.09-3.87-15.73-1.44-2.28-3.48-4.43-6.13-4.89-4.81-.84-9.27,2.01-12.3,5.53Z"/>
      <path class="cls-1" d="M772.05,778.41c-2.18,2.57-2.93,6.06-3.16,9.42-.18,2.71-.06,5.48.76,8.06s2.42,4.99,4.72,6.44,5.34,1.82,7.77.61c1.23-.61,2.25-1.57,3.16-2.6,1.16-1.31,2.17-2.77,2.86-4.38.82-1.89,1.18-3.95,1.26-6.01.18-4.25-.8-8.59-3.1-12.17-1.13-1.76-2.72-3.41-4.78-3.75-3.74-.62-7.17,1.62-9.5,4.36Z"/>
      <path class="cls-1" d="M720.37,754.19c-2.87,2.96-4.07,7.16-4.62,11.25-.44,3.29-.52,6.68.28,9.91.8,3.23,2.55,6.29,5.24,8.25s6.37,2.65,9.45,1.38c1.55-.64,2.87-1.73,4.07-2.91,1.52-1.51,2.87-3.21,3.85-5.12,1.15-2.24,1.76-4.73,2.03-7.24.57-5.17-.29-10.56-2.8-15.11-1.24-2.24-3.05-4.38-5.54-4.97-4.51-1.05-8.89,1.4-11.95,4.56Z"/>
      <path class="cls-1" d="M674.36,754.35c-3,3.02-4.3,7.35-4.92,11.56-.5,3.4-.63,6.9.16,10.24s2.55,6.53,5.3,8.59c2.75,2.05,6.55,2.82,9.74,1.55,1.61-.64,2.99-1.75,4.24-2.96,1.59-1.54,3.01-3.28,4.04-5.23,1.22-2.3,1.88-4.87,2.19-7.45.66-5.34-.16-10.91-2.7-15.64-1.25-2.33-3.09-4.57-5.65-5.2-4.65-1.15-9.2,1.33-12.4,4.55Z"/>
      <path class="cls-1" d="M625.27,767.46c-4,4.54-5.46,10.77-5.98,16.8-.42,4.85-.3,9.82,1.1,14.49,1.4,4.67,4.17,9.04,8.25,11.71,4.07,2.67,9.52,3.44,13.92,1.36,2.22-1.05,4.09-2.74,5.75-4.55,2.12-2.32,3.98-4.9,5.28-7.76,1.53-3.36,2.24-7.05,2.47-10.74.47-7.61-1.15-15.43-5.16-21.93-1.96-3.19-4.77-6.21-8.45-6.88-6.68-1.23-12.92,2.67-17.18,7.51Z"/>
      <path class="cls-1" d="M584.41,775.64c-4.08,4.09-5.85,9.95-6.7,15.66-.69,4.6-.87,9.35.19,13.88,1.06,4.53,3.44,8.86,7.17,11.65,3.73,2.79,8.87,3.84,13.2,2.12,2.18-.87,4.06-2.37,5.75-4,2.16-2.08,4.09-4.43,5.5-7.09,1.65-3.12,2.55-6.59,2.99-10.1.9-7.23-.19-14.79-3.62-21.22-1.68-3.16-4.18-6.2-7.65-7.07-6.3-1.57-12.48,1.78-16.83,6.14Z"/>
      <path class="cls-1" d="M551.18,807.74c-3.29,3.21-4.76,7.85-5.49,12.39-.59,3.65-.79,7.43,0,11.04.79,3.62,2.65,7.09,5.58,9.34,2.93,2.26,7.02,3.15,10.47,1.83,1.75-.67,3.25-1.84,4.62-3.12,1.74-1.63,3.3-3.48,4.44-5.58,1.35-2.46,2.1-5.22,2.49-8,.79-5.74,0-11.76-2.65-16.91-1.31-2.53-3.26-4.98-6.01-5.7-4.99-1.31-9.94,1.28-13.45,4.71Z"/>
      <path class="cls-1" d="M567.91,904.58c-3.08,3.09-4.41,7.52-5.04,11.84-.51,3.48-.64,7.06.16,10.48.8,3.42,2.61,6.69,5.43,8.79,2.82,2.1,6.7,2.89,9.97,1.59,1.65-.66,3.06-1.79,4.34-3.03,1.63-1.58,3.08-3.35,4.14-5.36,1.25-2.36,1.92-4.98,2.25-7.63.67-5.46-.16-11.17-2.76-16.02-1.28-2.38-3.16-4.68-5.79-5.33-4.76-1.18-9.42,1.36-12.7,4.66Z"/>
      <path class="cls-1" d="M547.93,805.13c-2.59,2.88-3.57,6.87-3.95,10.73-.3,3.11-.26,6.29.61,9.29s2.61,5.82,5.21,7.56,6.08,2.27,8.92.96c1.43-.66,2.64-1.73,3.71-2.88,1.38-1.47,2.59-3.11,3.44-4.94,1-2.15,1.48-4.51,1.65-6.87.35-4.88-.64-9.9-3.16-14.09-1.24-2.06-3.02-4.01-5.37-4.47-4.27-.83-8.3,1.62-11.06,4.7Z"/>
      <path class="cls-1" d="M497.71,861.34c-2.93,3.04-4.14,7.35-4.69,11.54-.44,3.38-.51,6.84.32,10.15.83,3.3,2.64,6.43,5.4,8.42s6.54,2.69,9.68,1.38c1.58-.66,2.94-1.78,4.15-3,1.55-1.55,2.93-3.3,3.92-5.25,1.17-2.3,1.78-4.85,2.05-7.42.56-5.3-.33-10.81-2.93-15.46-1.27-2.28-3.14-4.48-5.69-5.06-4.62-1.06-9.1,1.47-12.22,4.71Z"/>
      <path class="cls-1" d="M487.44,815.72c-2.91,3.07-4.09,7.38-4.61,11.57-.42,3.38-.46,6.85.4,10.14.86,3.29,2.68,6.41,5.46,8.38,2.78,1.97,6.55,2.64,9.68,1.31,1.58-.67,2.92-1.81,4.13-3.03,1.54-1.56,2.91-3.32,3.88-5.28,1.15-2.31,1.75-4.87,2-7.43.53-5.3-.41-10.8-3.04-15.44-1.29-2.28-3.17-4.45-5.72-5.02-4.63-1.03-9.08,1.53-12.18,4.8Z"/>
      <path class="cls-1" d="M441.49,801.26c-3.27,3.9-4.38,9.19-4.69,14.27-.25,4.1-.05,8.28,1.22,12.18,1.27,3.9,3.7,7.52,7.19,9.69s8.09,2.7,11.76.86c1.85-.93,3.39-2.39,4.75-3.95,1.74-2,3.25-4.21,4.29-6.64,1.22-2.87,1.74-5.99,1.86-9.1.24-6.42-1.29-12.98-4.79-18.36-1.72-2.64-4.15-5.13-7.26-5.62-5.65-.9-10.83,2.51-14.32,6.68Z"/>
      <path class="cls-1" d="M456.37,730.81c-1.84,2.12-2.5,5.02-2.72,7.82-.18,2.26-.1,4.56.56,6.73s1.97,4.18,3.87,5.41,4.43,1.56,6.47.58c1.03-.5,1.89-1.29,2.65-2.13.98-1.08,1.83-2.29,2.42-3.62.7-1.57,1.01-3.28,1.11-5,.19-3.54-.59-7.16-2.48-10.16-.92-1.47-2.24-2.87-3.95-3.17-3.11-.55-5.99,1.29-7.95,3.55Z"/>
      <path class="cls-1" d="M423.95,685.25c-3.21,3.25-4.58,7.88-5.23,12.4-.52,3.64-.65,7.39.21,10.96.85,3.58,2.76,6.99,5.71,9.18s7.02,3,10.43,1.62c1.72-.69,3.2-1.89,4.53-3.18,1.7-1.66,3.21-3.52,4.31-5.62,1.29-2.47,1.99-5.22,2.32-7.99.68-5.72-.21-11.68-2.95-16.74-1.34-2.49-3.33-4.88-6.07-5.55-4.98-1.21-9.85,1.46-13.27,4.92Z"/>
      <path class="cls-1" d="M369.92,664.5c-4.19,4.1-6.06,10.02-6.99,15.81-.75,4.66-.99,9.47.02,14.09,1.02,4.61,3.39,9.03,7.13,11.91,3.75,2.88,8.95,4.01,13.36,2.31,2.23-.85,4.15-2.35,5.88-3.99,2.22-2.09,4.2-4.45,5.66-7.12,1.72-3.14,2.67-6.66,3.16-10.21,1-7.33,0-15-3.41-21.57-1.67-3.22-4.17-6.34-7.68-7.26-6.37-1.67-12.68,1.65-17.15,6.03Z"/>
      <path class="cls-1" d="M301.02,752.59c-2.41,2.71-3.3,6.45-3.62,10.06-.26,2.91-.2,5.89.63,8.69.83,2.8,2.48,5.43,4.92,7.04s5.7,2.08,8.35.85c1.34-.62,2.46-1.63,3.46-2.72,1.28-1.38,2.4-2.93,3.18-4.64.92-2.01,1.36-4.23,1.5-6.44.3-4.56-.66-9.26-3.04-13.16-1.17-1.92-2.85-3.73-5.05-4.15-4-.75-7.75,1.57-10.32,4.47Z"/>
      <path class="cls-1" d="M231.45,668.14c-1.81,2.07-2.46,4.9-2.69,7.63-.18,2.2-.12,4.46.53,6.57s1.91,4.09,3.76,5.3,4.33,1.54,6.32.59c1.01-.48,1.85-1.25,2.6-2.08.96-1.06,1.8-2.23,2.38-3.53.69-1.53,1-3.21,1.1-4.88.2-3.46-.55-7-2.38-9.94-.9-1.44-2.18-2.81-3.85-3.11-3.03-.55-5.86,1.23-7.78,3.44Z"/>
      <path class="cls-1" d="M208.2,738.64c-2.25,2.65-3.03,6.25-3.27,9.72-.19,2.79-.07,5.65.78,8.32.85,2.67,2.49,5.15,4.86,6.65s5.51,1.88,8.02.64c1.27-.63,2.32-1.61,3.26-2.67,1.2-1.35,2.24-2.86,2.96-4.51.84-1.95,1.22-4.08,1.31-6.2.19-4.38-.82-8.86-3.19-12.55-1.16-1.81-2.8-3.52-4.93-3.87-3.85-.64-7.4,1.67-9.8,4.49Z"/>
      <path class="cls-1" d="M201.44,798.14c-2.08,2.19-2.93,5.28-3.3,8.28-.3,2.42-.33,4.9.28,7.26s1.92,4.59,3.91,6,4.69,1.89,6.93.93c1.13-.48,2.09-1.29,2.96-2.17,1.1-1.12,2.08-2.37,2.78-3.78.82-1.65,1.25-3.48,1.43-5.32.38-3.8-.29-7.73-2.18-11.05-.92-1.63-2.27-3.19-4.1-3.59-3.32-.74-6.5,1.1-8.72,3.44Z"/>
      <path class="cls-1" d="M168.82,820.98c-2.13,2.33-2.96,5.56-3.29,8.7-.27,2.53-.26,5.12.43,7.57.68,2.45,2.08,4.76,4.18,6.19s4.93,1.89,7.25.85c1.17-.52,2.16-1.39,3.04-2.31,1.13-1.19,2.13-2.51,2.83-3.99.83-1.74,1.24-3.66,1.4-5.58.32-3.97-.44-8.06-2.47-11.49-.99-1.68-2.42-3.29-4.34-3.68-3.47-.71-6.77,1.26-9.04,3.74Z"/>
      <path class="cls-1" d="M81.37,780.36c-2.06,2.28-2.85,5.45-3.16,8.51-.24,2.47-.22,5,.46,7.38s2.06,4.63,4.12,6.01,4.82,1.81,7.08.78c1.14-.52,2.1-1.37,2.96-2.28,1.1-1.17,2.06-2.47,2.74-3.91.8-1.7,1.19-3.58,1.33-5.45.29-3.87-.49-7.86-2.48-11.19-.98-1.64-2.39-3.19-4.26-3.56-3.39-.67-6.59,1.27-8.79,3.71Z"/>
      <path class="cls-1" d="M87.78,844.02c-3.5,3.42-5.05,8.35-5.83,13.18-.63,3.89-.83,7.9.01,11.75.85,3.85,2.82,7.54,5.94,9.94,3.12,2.4,7.47,3.34,11.14,1.94,1.86-.71,3.46-1.96,4.91-3.32,1.85-1.74,3.51-3.71,4.72-5.94,1.43-2.62,2.23-5.55,2.64-8.51.84-6.11,0-12.51-2.84-17.99-1.39-2.69-3.47-5.29-6.4-6.06-5.31-1.39-10.57,1.37-14.3,5.02Z"/>
      <path class="cls-1" d="M27.39,846.5c-3.84,3.94-5.47,9.53-6.23,14.98-.61,4.39-.73,8.91.32,13.22,1.05,4.31,3.37,8.41,6.94,11.03s8.49,3.57,12.59,1.89c2.07-.85,3.84-2.29,5.44-3.86,2.04-2.01,3.85-4.26,5.16-6.8,1.54-2.99,2.37-6.3,2.75-9.64.79-6.9-.32-14.08-3.65-20.17-1.64-2.99-4.04-5.86-7.36-6.65-6.01-1.43-11.86,1.82-15.96,6.02Z"/>
      <path class="cls-1" d="M64.42,936.06c-2.17,2.46-2.97,5.84-3.25,9.11-.23,2.63-.16,5.33.59,7.86s2.26,4.9,4.47,6.35,5.16,1.87,7.55.74c1.21-.57,2.22-1.48,3.12-2.47,1.15-1.26,2.16-2.66,2.87-4.21.83-1.82,1.22-3.83,1.34-5.83.26-4.13-.62-8.37-2.79-11.89-1.06-1.73-2.59-3.37-4.58-3.74-3.62-.67-7.01,1.45-9.32,4.07Z"/>
      <path class="cls-1" d="M22.02,948.42c-3.5,3.78-4.88,9.05-5.46,14.17-.46,4.12-.47,8.36.63,12.36,1.09,4,3.36,7.78,6.77,10.15,3.41,2.36,8.03,3.13,11.83,1.46,1.92-.85,3.54-2.24,4.99-3.75,1.86-1.93,3.5-4.08,4.66-6.49,1.37-2.83,2.06-5.96,2.33-9.09.57-6.47-.65-13.17-3.92-18.78-1.6-2.76-3.93-5.39-7.05-6.04-5.66-1.19-11.06,1.99-14.79,6.02Z"/>
    </g>
    <g>
      <path class="cls-4" d="M2197.35,709.19c-17.29,19.94-23.48,47.2-25.54,73.51-1.66,21.2-.97,42.87,5.3,63.19,6.27,20.32,18.52,39.29,36.39,50.81,17.87,11.52,41.65,14.68,60.81,5.46,9.67-4.65,17.74-12.08,24.93-20.06,9.18-10.18,17.22-21.51,22.78-34.04,6.54-14.74,9.54-30.86,10.41-46.96,1.81-33.24-5.56-67.31-23.25-95.52-8.68-13.85-21.03-26.92-37.12-29.76-29.19-5.14-56.28,12.09-74.72,33.36Z"/>
      <path class="cls-4" d="M1801.93,375.28c-20.27,22.66-27.89,53.94-30.73,84.21-2.29,24.39-1.89,49.36,4.97,72.89,6.85,23.52,20.63,45.59,41.01,59.18,20.38,13.59,47.71,17.65,69.95,7.38,11.23-5.19,20.66-13.6,29.08-22.65,10.76-11.57,20.22-24.47,26.85-38.8,7.8-16.86,11.54-35.38,12.84-53.91,2.68-38.26-5.2-77.63-25.07-110.44-9.75-16.1-23.74-31.39-42.23-34.94-33.54-6.44-65.04,12.92-86.66,37.08Z"/>
      <path class="cls-4" d="M1687.19,516.09c-15.12,17.2-20.65,40.81-22.6,63.63-1.57,18.39-1.1,37.19,4.22,54.87,5.31,17.67,15.84,34.2,31.27,44.31,15.44,10.11,36.05,12.98,52.74,5.1,8.42-3.98,15.47-10.38,21.75-17.25,8.03-8.78,15.07-18.56,19.97-29.4,5.76-12.75,8.46-26.72,9.32-40.69,1.77-28.83-4.42-58.44-19.6-83.02-7.45-12.07-18.09-23.49-32.03-26.04-25.3-4.63-48.91,10.15-65.03,28.5Z"/>
      <path class="cls-4" d="M1501.5,479.37c-17.32,18.62-24.2,44.65-27.08,69.91-2.31,20.36-2.39,41.25,2.96,61.02,5.34,19.78,16.5,38.46,33.32,50.16,16.82,11.7,39.6,15.54,58.37,7.32,9.47-4.15,17.49-11.03,24.68-18.47,9.18-9.49,17.3-20.13,23.09-32,6.8-13.97,10.23-29.39,11.62-44.86,2.87-31.94-3.08-65-19.15-92.75-7.89-13.62-19.34-26.64-34.74-29.91-27.94-5.94-54.6,9.73-73.07,29.59Z"/>
      <path class="cls-4" d="M1365.08,556.77c-10.75,11.09-15.26,26.82-17.32,42.13-1.66,12.34-1.96,25.03,1.04,37.11,3,12.08,9.55,23.57,19.62,30.89,10.07,7.32,23.87,9.93,35.37,5.17,5.81-2.4,10.77-6.48,15.23-10.91,5.7-5.65,10.76-12.01,14.42-19.16,4.3-8.4,6.58-17.73,7.62-27.11,2.14-19.37-1.06-39.53-10.48-56.59-4.62-8.38-11.42-16.42-20.73-18.6-16.9-3.95-33.29,5.23-44.76,17.07Z"/>
      <path class="cls-4" d="M1199.41,837.42c-16.58,19.5-22.34,45.98-24.1,71.52-1.42,20.58-.55,41.59,5.71,61.24,6.26,19.65,18.32,37.94,35.75,48.95,17.44,11.02,40.52,13.86,59.03,4.75,9.34-4.6,17.1-11.88,24-19.68,8.81-9.96,16.5-21.02,21.78-33.22,6.21-14.35,8.97-30.02,9.68-45.64,1.45-32.25-6-65.23-23.41-92.43-8.54-13.35-20.64-25.92-36.27-28.52-28.36-4.72-54.47,12.23-72.16,33.03Z"/>
      <path class="cls-4" d="M828.39,920.42c-19.03,18.72-27.46,45.7-31.64,72.06-3.37,21.24-4.42,43.15.27,64.14,4.69,20.99,15.52,41.1,32.62,54.15,17.09,13.05,40.81,18.14,60.88,10.38,10.13-3.91,18.86-10.76,26.75-18.22,10.07-9.53,19.08-20.31,25.7-32.49,7.78-14.33,12.09-30.35,14.27-46.51,4.49-33.37-.21-68.31-15.78-98.17-7.64-14.66-19.04-28.83-35.04-32.98-29.02-7.52-57.71,7.67-78.01,27.64Z"/>
      <path class="cls-4" d="M644.96,741.13c-14.84,14.55-21.44,35.54-24.73,56.06-2.65,16.53-3.49,33.59.13,49.94,3.62,16.35,12.03,32.02,25.32,42.2,13.29,10.18,31.75,14.17,47.38,8.16,7.89-3.03,14.7-8.35,20.85-14.15,7.85-7.41,14.88-15.78,20.05-25.26,6.07-11.15,9.45-23.61,11.17-36.19,3.54-25.97-.07-53.19-12.16-76.45-5.93-11.42-14.79-22.47-27.24-25.72-22.59-5.89-44.94,5.9-60.77,21.42Z"/>
      <path class="cls-4" d="M426.49,917.24c-17.16,17.45-24.49,42.31-27.93,66.54-2.77,19.52-3.4,39.62,1.21,58.79,4.61,19.17,14.84,37.44,30.71,49.15,15.87,11.71,37.69,16.02,55.96,8.61,9.22-3.74,17.13-10.15,24.24-17.1,9.09-8.89,17.19-18.9,23.07-30.17,6.92-13.26,10.63-28.01,12.38-42.85,3.61-30.66-1.22-62.62-15.94-89.76-7.23-13.32-17.89-26.15-32.62-29.71-26.72-6.46-52.79,7.9-71.1,26.51Z"/>
    </g>
    <g>
      <path class="cls-1" d="M2253.56,860.36c-3.33,3.39-4.75,8.22-5.41,12.92-.54,3.79-.66,7.69.24,11.41.9,3.72,2.89,7.27,5.97,9.54s7.32,3.11,10.87,1.66c1.79-.73,3.32-1.97,4.7-3.32,1.76-1.73,3.34-3.67,4.48-5.86,1.34-2.57,2.06-5.44,2.4-8.32.7-5.95-.24-12.16-3.1-17.42-1.4-2.59-3.48-5.07-6.34-5.76-5.19-1.25-10.25,1.54-13.8,5.15Z"/>
      <path class="cls-1" d="M2216.77,886.33c-4.81,5.45-6.58,12.95-7.21,20.2-.51,5.84-.37,11.81,1.31,17.43,1.68,5.62,5.01,10.87,9.91,14.09,4.9,3.22,11.44,4.14,16.75,1.65,2.68-1.26,4.92-3.29,6.92-5.47,2.55-2.78,4.8-5.89,6.36-9.33,1.84-4.05,2.7-8.48,2.98-12.92.58-9.16-1.37-18.56-6.18-26.38-2.36-3.84-5.73-7.47-10.16-8.29-8.03-1.49-15.54,3.2-20.67,9.02Z"/>
      <path class="cls-1" d="M2178.91,952.98c-4.8,5.61-6.48,13.24-7.01,20.6-.42,5.93-.19,11.99,1.6,17.66,1.79,5.67,5.25,10.95,10.27,14.14,5.02,3.19,11.67,4.03,17.02,1.42,2.7-1.32,4.94-3.41,6.94-5.65,2.55-2.86,4.78-6.05,6.31-9.56,1.8-4.13,2.61-8.65,2.83-13.15.44-9.3-1.68-18.81-6.68-26.67-2.45-3.86-5.93-7.49-10.44-8.25-8.17-1.38-15.72,3.48-20.83,9.47Z"/>
      <path class="cls-1" d="M2129.63,957.3c-2.61,2.81-3.65,6.73-4.08,10.54-.35,3.07-.36,6.22.45,9.2.81,2.98,2.49,5.8,5.02,7.56s5.97,2.34,8.8,1.1c1.43-.63,2.64-1.66,3.72-2.78,1.38-1.43,2.61-3.03,3.48-4.82,1.02-2.11,1.54-4.43,1.75-6.76.43-4.81-.46-9.8-2.89-13.98-1.19-2.05-2.91-4.01-5.24-4.51-4.21-.89-8.23,1.47-11.01,4.46Z"/>
      <path class="cls-1" d="M2084.02,871.69c-4.49,5.16-6.11,12.22-6.65,19.03-.44,5.49-.27,11.11,1.34,16.38,1.61,5.27,4.78,10.19,9.4,13.18,4.62,3,10.78,3.82,15.75,1.45,2.51-1.2,4.6-3.12,6.47-5.18,2.38-2.63,4.47-5.56,5.92-8.81,1.7-3.81,2.49-7.99,2.72-12.16.49-8.61-1.41-17.44-5.97-24.76-2.24-3.59-5.43-6.99-9.6-7.73-7.56-1.35-14.59,3.1-19.38,8.6Z"/>
      <path class="cls-1" d="M2037.53,879.4c-3.62,3.55-5.22,8.66-6.03,13.67-.65,4.03-.85,8.19.03,12.17.88,3.98,2.93,7.8,6.17,10.29,3.24,2.48,7.74,3.45,11.55,1.99,1.92-.74,3.58-2.04,5.08-3.45,1.91-1.81,3.63-3.85,4.89-6.16,1.48-2.72,2.3-5.76,2.72-8.82.86-6.33-.02-12.96-2.96-18.63-1.45-2.78-3.6-5.48-6.64-6.27-5.51-1.44-10.95,1.44-14.81,5.22Z"/>
      <path class="cls-1" d="M1980.11,935.6c-4.53,4.43-6.54,10.83-7.55,17.09-.81,5.04-1.07,10.24.03,15.23,1.1,4.99,3.66,9.77,7.71,12.87,4.05,3.11,9.68,4.33,14.45,2.5,2.41-.92,4.48-2.54,6.36-4.31,2.4-2.26,4.54-4.81,6.12-7.7,1.85-3.4,2.89-7.2,3.41-11.03,1.08-7.92,0-16.22-3.69-23.31-1.81-3.48-4.5-6.86-8.3-7.85-6.89-1.8-13.71,1.79-18.53,6.52Z"/>
      <path class="cls-1" d="M1917.26,808c-5.27,5.62-7.39,13.5-8.3,21.15-.73,6.17-.78,12.5.82,18.5,1.59,6,4.95,11.68,10.03,15.24,5.08,3.57,11.98,4.76,17.68,2.29,2.88-1.25,5.32-3.32,7.5-5.56,2.8-2.87,5.27-6.08,7.04-9.67,2.08-4.22,3.14-8.9,3.58-13.58.91-9.68-.85-19.7-5.68-28.14-2.37-4.14-5.83-8.1-10.49-9.11-8.46-1.84-16.56,2.88-22.18,8.87Z"/>
      <path class="cls-1" d="M1874.76,886.93c-5.15,5-7.46,12.24-8.63,19.31-.94,5.7-1.26,11.59-.04,17.24,1.22,5.65,4.1,11.07,8.67,14.61,4.57,3.54,10.94,4.95,16.34,2.9,2.73-1.03,5.09-2.86,7.22-4.85,2.72-2.54,5.16-5.42,6.96-8.69,2.12-3.84,3.3-8.14,3.92-12.48,1.26-8.96.06-18.36-4.07-26.41-2.03-3.95-5.07-7.78-9.36-8.93-7.79-2.07-15.53,1.96-21.02,7.29Z"/>
      <path class="cls-1" d="M1843.85,948.52c-4.85,5.13-6.82,12.35-7.67,19.36-.69,5.65-.75,11.45.69,16.96,1.44,5.51,4.5,10.72,9.15,14s10.97,4.4,16.2,2.16c2.64-1.13,4.88-3.03,6.9-5.08,2.57-2.62,4.85-5.55,6.48-8.84,1.92-3.86,2.91-8.14,3.32-12.44.87-8.87-.71-18.06-5.12-25.81-2.16-3.8-5.31-7.44-9.58-8.38-7.75-1.71-15.19,2.58-20.36,8.06Z"/>
      <path class="cls-1" d="M1794.62,953.96c-2.62,2.8-3.66,6.71-4.11,10.52-.36,3.06-.38,6.21.42,9.19.8,2.98,2.47,5.8,5,7.57s5.96,2.36,8.79,1.13c1.43-.62,2.64-1.65,3.72-2.77,1.39-1.43,2.61-3.02,3.49-4.81,1.03-2.1,1.55-4.42,1.77-6.75.44-4.81-.44-9.79-2.85-13.98-1.18-2.06-2.9-4.02-5.22-4.52-4.2-.91-8.23,1.44-11.02,4.43Z"/>
      <path class="cls-1" d="M1741.74,958.08c-4.95,5.43-6.87,12.97-7.62,20.28-.61,5.89-.57,11.93,1.03,17.63,1.6,5.7,4.88,11.07,9.77,14.4,4.89,3.33,11.49,4.38,16.89,1.95,2.73-1.23,5.02-3.24,7.08-5.41,2.63-2.77,4.94-5.87,6.58-9.31,1.92-4.06,2.87-8.52,3.23-13,.74-9.24-1.08-18.77-5.8-26.75-2.32-3.91-5.66-7.64-10.12-8.54-8.09-1.64-15.75,2.97-21.03,8.76Z"/>
      <path class="cls-1" d="M1694.1,963.37c-4.71,4.82-6.71,11.68-7.64,18.36-.75,5.38-.9,10.92.38,16.2,1.29,5.28,4.12,10.31,8.5,13.52s10.4,4.38,15.43,2.32c2.54-1.04,4.71-2.81,6.67-4.73,2.5-2.46,4.72-5.22,6.33-8.33,1.89-3.66,2.91-7.73,3.38-11.82.97-8.45-.39-17.25-4.47-24.72-2-3.66-4.95-7.19-9.01-8.16-7.37-1.76-14.54,2.22-19.57,7.36Z"/>
      <path class="cls-1" d="M1670.2,906.55c-3.64,4.02-5.03,9.59-5.56,14.98-.43,4.35-.39,8.8.81,13,1.2,4.2,3.63,8.15,7.25,10.59,3.62,2.44,8.49,3.19,12.46,1.39,2.01-.91,3.7-2.4,5.21-4.01,1.93-2.05,3.63-4.34,4.83-6.89,1.41-3,2.09-6.3,2.34-9.6.52-6.82-.85-13.85-4.36-19.71-1.72-2.88-4.2-5.62-7.49-6.27-5.97-1.18-11.61,2.24-15.49,6.53Z"/>
      <path class="cls-1" d="M1609.22,907.54c-5.13,5-7.43,12.23-8.58,19.3-.93,5.7-1.24,11.58,0,17.22,1.23,5.64,4.12,11.05,8.69,14.58,4.57,3.52,10.93,4.92,16.33,2.86,2.72-1.04,5.08-2.86,7.2-4.86,2.72-2.55,5.15-5.43,6.94-8.69,2.11-3.84,3.28-8.13,3.89-12.47,1.25-8.95.03-18.34-4.11-26.37-2.03-3.94-5.08-7.76-9.37-8.9-7.78-2.06-15.5,1.99-20.97,7.32Z"/>
      <path class="cls-1" d="M1561.18,909.11c-3.14,3.66-4.26,8.64-4.61,13.45-.29,3.87-.15,7.83,1.01,11.54,1.16,3.71,3.41,7.17,6.69,9.26,3.27,2.09,7.62,2.65,11.12.95,1.76-.86,3.23-2.22,4.54-3.68,1.67-1.87,3.13-3.94,4.14-6.24,1.18-2.7,1.72-5.65,1.87-8.59.31-6.08-1.07-12.3-4.32-17.44-1.6-2.52-3.86-4.9-6.8-5.41-5.34-.92-10.27,2.25-13.63,6.15Z"/>
      <path class="cls-1" d="M1496.88,803.16c-2.71,3.09-3.7,7.33-4.04,11.43-.28,3.3-.19,6.68.77,9.85.96,3.17,2.85,6.14,5.63,7.95,2.78,1.81,6.48,2.32,9.47.9,1.51-.72,2.78-1.87,3.9-3.1,1.44-1.58,2.7-3.34,3.58-5.28,1.03-2.29,1.51-4.8,1.66-7.31.31-5.18-.81-10.49-3.54-14.91-1.34-2.17-3.25-4.21-5.76-4.67-4.55-.83-8.78,1.83-11.67,5.13Z"/>
      <path class="cls-1" d="M1412.11,838.64c-2.45,2.92-3.28,6.88-3.52,10.69-.19,3.07-.04,6.2.92,9.13s2.77,5.64,5.38,7.26,6.06,2.02,8.81.65c1.39-.7,2.54-1.79,3.56-2.96,1.3-1.49,2.44-3.15,3.21-4.98.91-2.15,1.31-4.49,1.39-6.82.18-4.81-.96-9.72-3.59-13.76-1.29-1.98-3.1-3.84-5.44-4.22-4.23-.67-8.11,1.88-10.73,5Z"/>
      <path class="cls-1" d="M1423.01,945.84c-3.4,4.02-4.58,9.46-4.93,14.72-.28,4.23-.1,8.55,1.2,12.59,1.29,4.04,3.78,7.79,7.37,10.05,3.59,2.26,8.34,2.83,12.14.95,1.92-.95,3.51-2.45,4.93-4.06,1.81-2.05,3.39-4.33,4.47-6.84,1.27-2.95,1.83-6.18,1.97-9.39.29-6.63-1.26-13.41-4.85-19-1.76-2.74-4.25-5.32-7.47-5.85-5.83-.96-11.2,2.54-14.83,6.82Z"/>
      <path class="cls-1" d="M1355.25,940.65c-2.25,2.33-3.19,5.63-3.62,8.85-.34,2.59-.4,5.25.23,7.79s2.01,4.94,4.13,6.47,5.01,2.08,7.42,1.07c1.22-.51,2.26-1.36,3.19-2.29,1.19-1.19,2.25-2.52,3.02-4.02.9-1.76,1.37-3.72,1.59-5.69.44-4.07-.24-8.29-2.22-11.87-.97-1.76-2.4-3.44-4.36-3.9-3.55-.82-6.98,1.11-9.39,3.6Z"/>
      <path class="cls-1" d="M1223.54,969.09c-3.19,3.22-4.56,7.82-5.21,12.31-.52,3.62-.65,7.34.19,10.89.84,3.55,2.73,6.95,5.66,9.12,2.93,2.18,6.97,2.99,10.36,1.62,1.71-.69,3.18-1.87,4.5-3.16,1.69-1.64,3.2-3.49,4.29-5.58,1.29-2.45,1.98-5.18,2.32-7.93.69-5.68-.19-11.6-2.9-16.64-1.33-2.47-3.3-4.85-6.03-5.52-4.95-1.21-9.79,1.43-13.19,4.87Z"/>
      <path class="cls-1" d="M1167.93,944.69c-5.31,5.54-7.51,13.36-8.49,20.97-.79,6.13-.91,12.43.61,18.42,1.52,5.99,4.8,11.68,9.82,15.29,5.02,3.61,11.88,4.87,17.58,2.48,2.88-1.21,5.33-3.25,7.53-5.46,2.81-2.82,5.31-5.99,7.11-9.55,2.12-4.18,3.22-8.82,3.71-13.48,1.01-9.62-.63-19.62-5.35-28.07-2.32-4.15-5.71-8.12-10.34-9.18-8.4-1.92-16.52,2.68-22.18,8.59Z"/>
      <path class="cls-1" d="M1122.38,900.11c-3.24,3.17-4.68,7.74-5.4,12.21-.58,3.6-.77,7.32.01,10.88.78,3.56,2.61,6.98,5.51,9.2,2.89,2.22,6.92,3.1,10.32,1.79,1.72-.66,3.2-1.82,4.55-3.08,1.71-1.61,3.25-3.44,4.38-5.5,1.33-2.43,2.07-5.14,2.44-7.88.78-5.66,0-11.59-2.63-16.66-1.29-2.49-3.22-4.9-5.93-5.61-4.92-1.29-9.8,1.27-13.25,4.65Z"/>
      <path class="cls-1" d="M1073.32,958.24c-3.8,3.86-5.42,9.36-6.18,14.72-.61,4.32-.75,8.77.27,13.01,1.02,4.24,3.28,8.29,6.79,10.88,3.51,2.59,8.34,3.54,12.38,1.91,2.04-.83,3.79-2.24,5.36-3.78,2.01-1.97,3.8-4.18,5.11-6.67,1.53-2.93,2.35-6.2,2.74-9.48.8-6.78-.27-13.86-3.52-19.86-1.6-2.95-3.96-5.79-7.22-6.57-5.91-1.43-11.68,1.75-15.73,5.86Z"/>
      <path class="cls-1" d="M1010.65,843.88c-4.52,4.87-6.31,11.68-7.06,18.28-.6,5.32-.61,10.78.79,15.95,1.4,5.17,4.32,10.05,8.72,13.1,4.4,3.05,10.36,4.05,15.26,1.9,2.47-1.09,4.57-2.89,6.45-4.83,2.4-2.48,4.52-5.27,6.03-8.37,1.77-3.65,2.67-7.69,3.02-11.73.74-8.35-.82-16.99-5.03-24.24-2.07-3.56-5.06-6.96-9.09-7.81-7.3-1.54-14.27,2.56-19.09,7.75Z"/>
      <path class="cls-1" d="M968.97,920.09c-4.08,4.39-5.7,10.52-6.38,16.47-.55,4.8-.56,9.72.7,14.38,1.26,4.66,3.89,9.06,7.85,11.82s9.33,3.66,13.75,1.72c2.23-.98,4.12-2.6,5.82-4.35,2.16-2.24,4.08-4.74,5.44-7.54,1.6-3.29,2.41-6.92,2.74-10.57.67-7.53-.73-15.31-4.51-21.85-1.86-3.21-4.56-6.28-8.18-7.05-6.58-1.4-12.86,2.29-17.21,6.97Z"/>
      <path class="cls-1" d="M925.43,956.15c-2.69,2.77-3.83,6.71-4.35,10.54-.42,3.09-.5,6.26.25,9.29.75,3.03,2.38,5.9,4.9,7.74s5.97,2.49,8.85,1.3c1.45-.6,2.7-1.62,3.81-2.73,1.43-1.41,2.7-3,3.62-4.79,1.08-2.1,1.65-4.44,1.91-6.79.54-4.85-.26-9.9-2.61-14.17-1.16-2.1-2.85-4.11-5.19-4.66-4.23-.99-8.34,1.3-11.21,4.26Z"/>
      <path class="cls-1" d="M865.86,934.09c-3.78,4.17-5.22,9.94-5.79,15.53-.45,4.51-.41,9.13.83,13.48,1.24,4.36,3.76,8.46,7.51,10.99,3.75,2.54,8.8,3.32,12.93,1.45,2.08-.95,3.84-2.49,5.4-4.15,2-2.13,3.77-4.5,5.01-7.14,1.46-3.11,2.18-6.53,2.44-9.95.54-7.07-.87-14.36-4.5-20.45-1.78-2.99-4.35-5.83-7.77-6.51-6.19-1.23-12.04,2.31-16.07,6.75Z"/>
      <path class="cls-1" d="M470.12,928.85c-2.66,2.85-3.71,6.85-4.16,10.72-.36,3.12-.37,6.33.45,9.36.82,3.03,2.53,5.9,5.11,7.69s6.07,2.39,8.95,1.13c1.45-.64,2.68-1.69,3.79-2.83,1.41-1.46,2.65-3.09,3.54-4.91,1.04-2.14,1.57-4.51,1.78-6.88.44-4.9-.47-9.97-2.93-14.23-1.21-2.09-2.96-4.09-5.33-4.59-4.28-.91-8.37,1.49-11.21,4.53Z"/>
      <path class="cls-1" d="M393.97,916.94c-3.47,3.48-4.97,8.46-5.7,13.32-.58,3.92-.74,7.95.17,11.81.9,3.86,2.93,7.54,6.1,9.91s7.55,3.27,11.23,1.8c1.86-.74,3.45-2.01,4.89-3.4,1.84-1.77,3.48-3.77,4.67-6.03,1.41-2.65,2.17-5.61,2.54-8.59.77-6.15-.16-12.58-3.08-18.05-1.43-2.68-3.56-5.27-6.51-6.01-5.36-1.33-10.61,1.52-14.31,5.23Z"/>
      <path class="cls-1" d="M300.69,849.46c-3.84,4.13-5.37,9.9-6,15.5-.51,4.51-.53,9.15.66,13.53,1.19,4.39,3.66,8.53,7.39,11.12,3.73,2.59,8.78,3.45,12.94,1.62,2.1-.92,3.88-2.45,5.47-4.1,2.04-2.11,3.84-4.46,5.12-7.1,1.51-3.1,2.27-6.52,2.58-9.95.64-7.08-.68-14.42-4.25-20.57-1.75-3.02-4.29-5.91-7.7-6.63-6.2-1.32-12.11,2.16-16.2,6.56Z"/>
      <path class="cls-1" d="M240.29,917.73c-5.15,5.2-7.36,12.63-8.41,19.88-.85,5.84-1.05,11.85.31,17.59,1.36,5.74,4.41,11.22,9.14,14.73,4.74,3.52,11.26,4.83,16.73,2.63,2.76-1.11,5.13-3.02,7.27-5.1,2.73-2.65,5.16-5.64,6.93-9.01,2.08-3.96,3.21-8.37,3.74-12.81,1.11-9.17-.31-18.74-4.69-26.87-2.15-3.99-5.33-7.84-9.73-8.92-7.99-1.96-15.8,2.32-21.29,7.87Z"/>
      <path class="cls-1" d="M177.17,925.61c-3.35,3.4-4.77,8.25-5.45,12.97-.54,3.81-.66,7.72.23,11.46.9,3.74,2.89,7.3,5.99,9.58,3.09,2.28,7.35,3.12,10.91,1.68,1.8-.73,3.34-1.98,4.73-3.33,1.77-1.73,3.35-3.68,4.5-5.88,1.35-2.58,2.07-5.46,2.41-8.35.71-5.98-.24-12.21-3.1-17.5-1.41-2.6-3.49-5.1-6.36-5.79-5.21-1.26-10.29,1.54-13.86,5.17Z"/>
      <path class="cls-1" d="M134.5,952.09c-2.36,2.46-3.34,5.94-3.77,9.32-.35,2.72-.4,5.52.27,8.19s2.13,5.19,4.36,6.79,5.28,2.16,7.81,1.1c1.28-.54,2.37-1.44,3.35-2.42,1.25-1.25,2.36-2.66,3.16-4.24.94-1.86,1.43-3.92,1.65-5.99.45-4.28-.28-8.72-2.38-12.47-1.03-1.84-2.54-3.61-4.6-4.08-3.73-.85-7.34,1.19-9.85,3.82Z"/>
    </g>
  </g>
</svg>